<svg width="1788" height="61" viewBox="0 0 1788 61" fill="none" xmlns="http://www.w3.org/2000/svg">
<path d="M2.8 45.4297V16.6297H22.06V21.1497H7.62V27.3497H14.7C14.9667 27.3497 15.32 27.363 15.76 27.3897C16.2133 27.403 16.6267 27.4297 17 27.4697C18.6133 27.6564 19.96 28.1697 21.04 29.0097C22.1333 29.8497 22.9533 30.9097 23.5 32.1897C24.06 33.4697 24.34 34.8697 24.34 36.3897C24.34 37.9097 24.0667 39.3164 23.52 40.6097C22.9733 41.8897 22.1533 42.9497 21.06 43.7897C19.98 44.6164 18.6267 45.123 17 45.3097C16.6267 45.3497 16.22 45.383 15.78 45.4097C15.34 45.423 14.98 45.4297 14.7 45.4297H2.8ZM7.62 40.9097H14.5C14.7667 40.9097 15.0667 40.8964 15.4 40.8697C15.7333 40.843 16.04 40.803 16.32 40.7497C17.52 40.4964 18.3467 39.9364 18.8 39.0697C19.2533 38.203 19.48 37.3097 19.48 36.3897C19.48 35.4564 19.2533 34.563 18.8 33.7097C18.3467 32.843 17.52 32.283 16.32 32.0297C16.04 31.963 15.7333 31.923 15.4 31.9097C15.0667 31.883 14.7667 31.8697 14.5 31.8697H7.62L7.62 40.9097ZM28.3469 45.4297V16.6297H46.9469V21.1497H33.1669V28.2497H44.5469V32.7697H33.1669V40.9097H46.9469V45.4297H28.3469ZM62.7144 46.0297C59.8344 46.0297 57.3677 45.403 55.3144 44.1497C53.261 42.883 51.681 41.123 50.5744 38.8697C49.481 36.6164 48.9344 34.003 48.9344 31.0297C48.9344 28.0564 49.481 25.443 50.5744 23.1897C51.681 20.9364 53.261 19.183 55.3144 17.9297C57.3677 16.663 59.8344 16.0297 62.7144 16.0297C66.0344 16.0297 68.801 16.863 71.0144 18.5297C73.2277 20.183 74.781 22.4164 75.6744 25.2297L70.8144 26.5697C70.2544 24.6897 69.301 23.223 67.9544 22.1697C66.6077 21.103 64.861 20.5697 62.7144 20.5697C60.781 20.5697 59.1677 21.003 57.8744 21.8697C56.5944 22.7364 55.6277 23.9564 54.9744 25.5297C54.3344 27.0897 54.0077 28.923 53.9944 31.0297C53.9944 33.1364 54.3144 34.9764 54.9544 36.5497C55.6077 38.1097 56.581 39.323 57.8744 40.1897C59.1677 41.0564 60.781 41.4897 62.7144 41.4897C64.861 41.4897 66.6077 40.9564 67.9544 39.8897C69.301 38.823 70.2544 37.3564 70.8144 35.4897L75.6744 36.8297C74.781 39.643 73.2277 41.883 71.0144 43.5497C68.801 45.203 66.0344 46.0297 62.7144 46.0297ZM80.0656 45.4297V16.6297H103.406V45.4297H98.5856V21.1497H84.8856V45.4297H80.0656ZM107.011 45.4297V41.3897C107.651 41.4297 108.191 41.383 108.631 41.2497C109.071 41.103 109.438 40.8297 109.731 40.4297C110.038 40.0164 110.304 39.4364 110.531 38.6897C110.758 37.9297 110.978 36.9764 111.191 35.8297C111.498 34.1897 111.751 32.483 111.951 30.7097C112.164 28.923 112.344 27.1697 112.491 25.4497C112.638 23.7164 112.751 22.0897 112.831 20.5697C112.911 19.0497 112.978 17.7364 113.031 16.6297L132.311 16.6297V45.4297H127.491V21.1497H117.491C117.424 22.043 117.344 23.123 117.251 24.3897C117.171 25.643 117.058 27.003 116.911 28.4697C116.778 29.9364 116.604 31.4564 116.391 33.0297C116.191 34.603 115.944 36.1497 115.651 37.6697C115.384 39.0564 115.064 40.303 114.691 41.4097C114.318 42.503 113.818 43.4097 113.191 44.1297C112.578 44.8364 111.771 45.3097 110.771 45.5497C109.784 45.7897 108.531 45.7497 107.011 45.4297ZM135.917 45.4297L144.997 16.6297H152.057L161.137 45.4297H156.177L147.937 19.5897H149.017L140.877 45.4297H135.917ZM140.977 39.1897V34.6897H156.097V39.1897H140.977ZM169.29 45.4297V21.1497H159.97V16.6297H183.43V21.1497H174.11V45.4297H169.29ZM186.628 45.4297V16.6297H191.448V28.7497H205.088V16.6297H209.888V45.4297H205.088V33.2697H191.448V45.4297H186.628ZM227.675 46.0297C224.795 46.0297 222.329 45.403 220.275 44.1497C218.222 42.883 216.642 41.123 215.535 38.8697C214.442 36.6164 213.895 34.003 213.895 31.0297C213.895 28.0564 214.442 25.443 215.535 23.1897C216.642 20.9364 218.222 19.183 220.275 17.9297C222.329 16.663 224.795 16.0297 227.675 16.0297C230.555 16.0297 233.022 16.663 235.075 17.9297C237.142 19.183 238.722 20.9364 239.815 23.1897C240.922 25.443 241.475 28.0564 241.475 31.0297C241.475 34.003 240.922 36.6164 239.815 38.8697C238.722 41.123 237.142 42.883 235.075 44.1497C233.022 45.403 230.555 46.0297 227.675 46.0297ZM227.675 41.4897C229.609 41.503 231.215 41.0764 232.495 40.2097C233.789 39.343 234.755 38.123 235.395 36.5497C236.049 34.9764 236.375 33.1364 236.375 31.0297C236.375 28.923 236.049 27.0964 235.395 25.5497C234.755 23.9897 233.789 22.7764 232.495 21.9097C231.215 21.043 229.609 20.5964 227.675 20.5697C225.742 20.5564 224.135 20.983 222.855 21.8497C221.575 22.7164 220.609 23.9364 219.955 25.5097C219.315 27.083 218.995 28.923 218.995 31.0297C218.995 33.1364 219.315 34.9697 219.955 36.5297C220.595 38.0764 221.555 39.283 222.835 40.1497C224.129 41.0164 225.742 41.463 227.675 41.4897ZM247.456 45.4297V41.0097H252.276V45.4297H247.456ZM247.456 38.2297V16.6297H252.276V38.2297H247.456Z" fill="url(#paint0_linear_1011_7)" fill-opacity="0.3"/>
<path d="M308.8 45.4297V16.6297H328.06V21.1497H313.62V27.3497H320.7C320.967 27.3497 321.32 27.363 321.76 27.3897C322.213 27.403 322.627 27.4297 323 27.4697C324.613 27.6564 325.96 28.1697 327.04 29.0097C328.133 29.8497 328.953 30.9097 329.5 32.1897C330.06 33.4697 330.34 34.8697 330.34 36.3897C330.34 37.9097 330.067 39.3164 329.52 40.6097C328.973 41.8897 328.153 42.9497 327.06 43.7897C325.98 44.6164 324.627 45.123 323 45.3097C322.627 45.3497 322.22 45.383 321.78 45.4097C321.34 45.423 320.98 45.4297 320.7 45.4297H308.8ZM313.62 40.9097H320.5C320.767 40.9097 321.067 40.8964 321.4 40.8697C321.733 40.843 322.04 40.803 322.32 40.7497C323.52 40.4964 324.347 39.9364 324.8 39.0697C325.253 38.203 325.48 37.3097 325.48 36.3897C325.48 35.4564 325.253 34.563 324.8 33.7097C324.347 32.843 323.52 32.283 322.32 32.0297C322.04 31.963 321.733 31.923 321.4 31.9097C321.067 31.883 320.767 31.8697 320.5 31.8697H313.62V40.9097ZM334.347 45.4297V16.6297H352.947V21.1497H339.167V28.2497H350.547V32.7697H339.167V40.9097H352.947V45.4297H334.347ZM368.714 46.0297C365.834 46.0297 363.368 45.403 361.314 44.1497C359.261 42.883 357.681 41.123 356.574 38.8697C355.481 36.6164 354.934 34.003 354.934 31.0297C354.934 28.0564 355.481 25.443 356.574 23.1897C357.681 20.9364 359.261 19.183 361.314 17.9297C363.368 16.663 365.834 16.0297 368.714 16.0297C372.034 16.0297 374.801 16.863 377.014 18.5297C379.228 20.183 380.781 22.4164 381.674 25.2297L376.814 26.5697C376.254 24.6897 375.301 23.223 373.954 22.1697C372.608 21.103 370.861 20.5697 368.714 20.5697C366.781 20.5697 365.168 21.003 363.874 21.8697C362.594 22.7364 361.628 23.9564 360.974 25.5297C360.334 27.0897 360.008 28.923 359.994 31.0297C359.994 33.1364 360.314 34.9764 360.954 36.5497C361.608 38.1097 362.581 39.323 363.874 40.1897C365.168 41.0564 366.781 41.4897 368.714 41.4897C370.861 41.4897 372.608 40.9564 373.954 39.8897C375.301 38.823 376.254 37.3564 376.814 35.4897L381.674 36.8297C380.781 39.643 379.228 41.883 377.014 43.5497C374.801 45.203 372.034 46.0297 368.714 46.0297ZM386.066 45.4297V16.6297H409.406V45.4297H404.586V21.1497H390.886V45.4297H386.066ZM413.011 45.4297V41.3897C413.651 41.4297 414.191 41.383 414.631 41.2497C415.071 41.103 415.438 40.8297 415.731 40.4297C416.038 40.0164 416.304 39.4364 416.531 38.6897C416.758 37.9297 416.978 36.9764 417.191 35.8297C417.498 34.1897 417.751 32.483 417.951 30.7097C418.164 28.923 418.344 27.1697 418.491 25.4497C418.638 23.7164 418.751 22.0897 418.831 20.5697C418.911 19.0497 418.978 17.7364 419.031 16.6297L438.311 16.6297V45.4297H433.491V21.1497H423.491C423.424 22.043 423.344 23.123 423.251 24.3897C423.171 25.643 423.058 27.003 422.911 28.4697C422.778 29.9364 422.604 31.4564 422.391 33.0297C422.191 34.603 421.944 36.1497 421.651 37.6697C421.384 39.0564 421.064 40.303 420.691 41.4097C420.318 42.503 419.818 43.4097 419.191 44.1297C418.578 44.8364 417.771 45.3097 416.771 45.5497C415.784 45.7897 414.531 45.7497 413.011 45.4297ZM441.917 45.4297L450.997 16.6297H458.057L467.137 45.4297H462.177L453.937 19.5897H455.017L446.877 45.4297H441.917ZM446.977 39.1897V34.6897H462.097V39.1897H446.977ZM475.29 45.4297V21.1497H465.97V16.6297H489.43V21.1497H480.11V45.4297H475.29ZM492.628 45.4297V16.6297H497.448V28.7497H511.088V16.6297H515.888V45.4297H511.088V33.2697H497.448V45.4297H492.628ZM533.675 46.0297C530.795 46.0297 528.329 45.403 526.275 44.1497C524.222 42.883 522.642 41.123 521.535 38.8697C520.442 36.6164 519.895 34.003 519.895 31.0297C519.895 28.0564 520.442 25.443 521.535 23.1897C522.642 20.9364 524.222 19.183 526.275 17.9297C528.329 16.663 530.795 16.0297 533.675 16.0297C536.555 16.0297 539.022 16.663 541.075 17.9297C543.142 19.183 544.722 20.9364 545.815 23.1897C546.922 25.443 547.475 28.0564 547.475 31.0297C547.475 34.003 546.922 36.6164 545.815 38.8697C544.722 41.123 543.142 42.883 541.075 44.1497C539.022 45.403 536.555 46.0297 533.675 46.0297ZM533.675 41.4897C535.609 41.503 537.215 41.0764 538.495 40.2097C539.789 39.343 540.755 38.123 541.395 36.5497C542.049 34.9764 542.375 33.1364 542.375 31.0297C542.375 28.923 542.049 27.0964 541.395 25.5497C540.755 23.9897 539.789 22.7764 538.495 21.9097C537.215 21.043 535.609 20.5964 533.675 20.5697C531.742 20.5564 530.135 20.983 528.855 21.8497C527.575 22.7164 526.609 23.9364 525.955 25.5097C525.315 27.083 524.995 28.923 524.995 31.0297C524.995 33.1364 525.315 34.9697 525.955 36.5297C526.595 38.0764 527.555 39.283 528.835 40.1497C530.129 41.0164 531.742 41.463 533.675 41.4897ZM553.456 45.4297V41.0097H558.276V45.4297H553.456ZM553.456 38.2297V16.6297H558.276V38.2297H553.456Z" fill="url(#paint1_linear_1011_7)" fill-opacity="0.3"/>
<path d="M614.8 45.4297V16.6297H634.06V21.1497H619.62V27.3497H626.7C626.967 27.3497 627.32 27.363 627.76 27.3897C628.213 27.403 628.627 27.4297 629 27.4697C630.613 27.6564 631.96 28.1697 633.04 29.0097C634.133 29.8497 634.953 30.9097 635.5 32.1897C636.06 33.4697 636.34 34.8697 636.34 36.3897C636.34 37.9097 636.067 39.3164 635.52 40.6097C634.973 41.8897 634.153 42.9497 633.06 43.7897C631.98 44.6164 630.627 45.123 629 45.3097C628.627 45.3497 628.22 45.383 627.78 45.4097C627.34 45.423 626.98 45.4297 626.7 45.4297H614.8ZM619.62 40.9097H626.5C626.767 40.9097 627.067 40.8964 627.4 40.8697C627.733 40.843 628.04 40.803 628.32 40.7497C629.52 40.4964 630.347 39.9364 630.8 39.0697C631.253 38.203 631.48 37.3097 631.48 36.3897C631.48 35.4564 631.253 34.563 630.8 33.7097C630.347 32.843 629.52 32.283 628.32 32.0297C628.04 31.963 627.733 31.923 627.4 31.9097C627.067 31.883 626.767 31.8697 626.5 31.8697H619.62V40.9097ZM640.347 45.4297V16.6297H658.947V21.1497H645.167V28.2497H656.547V32.7697H645.167V40.9097H658.947V45.4297H640.347ZM674.714 46.0297C671.834 46.0297 669.368 45.403 667.314 44.1497C665.261 42.883 663.681 41.123 662.574 38.8697C661.481 36.6164 660.934 34.003 660.934 31.0297C660.934 28.0564 661.481 25.443 662.574 23.1897C663.681 20.9364 665.261 19.183 667.314 17.9297C669.368 16.663 671.834 16.0297 674.714 16.0297C678.034 16.0297 680.801 16.863 683.014 18.5297C685.228 20.183 686.781 22.4164 687.674 25.2297L682.814 26.5697C682.254 24.6897 681.301 23.223 679.954 22.1697C678.608 21.103 676.861 20.5697 674.714 20.5697C672.781 20.5697 671.168 21.003 669.874 21.8697C668.594 22.7364 667.628 23.9564 666.974 25.5297C666.334 27.0897 666.008 28.923 665.994 31.0297C665.994 33.1364 666.314 34.9764 666.954 36.5497C667.608 38.1097 668.581 39.323 669.874 40.1897C671.168 41.0564 672.781 41.4897 674.714 41.4897C676.861 41.4897 678.608 40.9564 679.954 39.8897C681.301 38.823 682.254 37.3564 682.814 35.4897L687.674 36.8297C686.781 39.643 685.228 41.883 683.014 43.5497C680.801 45.203 678.034 46.0297 674.714 46.0297ZM692.066 45.4297V16.6297H715.406V45.4297H710.586V21.1497H696.886V45.4297H692.066ZM719.011 45.4297V41.3897C719.651 41.4297 720.191 41.383 720.631 41.2497C721.071 41.103 721.438 40.8297 721.731 40.4297C722.038 40.0164 722.304 39.4364 722.531 38.6897C722.758 37.9297 722.978 36.9764 723.191 35.8297C723.498 34.1897 723.751 32.483 723.951 30.7097C724.164 28.923 724.344 27.1697 724.491 25.4497C724.638 23.7164 724.751 22.0897 724.831 20.5697C724.911 19.0497 724.978 17.7364 725.031 16.6297L744.311 16.6297V45.4297H739.491V21.1497H729.491C729.424 22.043 729.344 23.123 729.251 24.3897C729.171 25.643 729.058 27.003 728.911 28.4697C728.778 29.9364 728.604 31.4564 728.391 33.0297C728.191 34.603 727.944 36.1497 727.651 37.6697C727.384 39.0564 727.064 40.303 726.691 41.4097C726.318 42.503 725.818 43.4097 725.191 44.1297C724.578 44.8364 723.771 45.3097 722.771 45.5497C721.784 45.7897 720.531 45.7497 719.011 45.4297ZM747.917 45.4297L756.997 16.6297H764.057L773.137 45.4297H768.177L759.937 19.5897H761.017L752.877 45.4297H747.917ZM752.977 39.1897V34.6897H768.097V39.1897H752.977ZM781.29 45.4297V21.1497H771.97V16.6297H795.43V21.1497H786.11V45.4297H781.29ZM798.628 45.4297V16.6297H803.448V28.7497H817.088V16.6297H821.888V45.4297H817.088V33.2697H803.448V45.4297H798.628ZM839.675 46.0297C836.795 46.0297 834.329 45.403 832.275 44.1497C830.222 42.883 828.642 41.123 827.535 38.8697C826.442 36.6164 825.895 34.003 825.895 31.0297C825.895 28.0564 826.442 25.443 827.535 23.1897C828.642 20.9364 830.222 19.183 832.275 17.9297C834.329 16.663 836.795 16.0297 839.675 16.0297C842.555 16.0297 845.022 16.663 847.075 17.9297C849.142 19.183 850.722 20.9364 851.815 23.1897C852.922 25.443 853.475 28.0564 853.475 31.0297C853.475 34.003 852.922 36.6164 851.815 38.8697C850.722 41.123 849.142 42.883 847.075 44.1497C845.022 45.403 842.555 46.0297 839.675 46.0297ZM839.675 41.4897C841.609 41.503 843.215 41.0764 844.495 40.2097C845.789 39.343 846.755 38.123 847.395 36.5497C848.049 34.9764 848.375 33.1364 848.375 31.0297C848.375 28.923 848.049 27.0964 847.395 25.5497C846.755 23.9897 845.789 22.7764 844.495 21.9097C843.215 21.043 841.609 20.5964 839.675 20.5697C837.742 20.5564 836.135 20.983 834.855 21.8497C833.575 22.7164 832.609 23.9364 831.955 25.5097C831.315 27.083 830.995 28.923 830.995 31.0297C830.995 33.1364 831.315 34.9697 831.955 36.5297C832.595 38.0764 833.555 39.283 834.835 40.1497C836.129 41.0164 837.742 41.463 839.675 41.4897ZM859.456 45.4297V41.0097H864.276V45.4297H859.456ZM859.456 38.2297V16.6297H864.276V38.2297H859.456Z" fill="url(#paint2_linear_1011_7)" fill-opacity="0.3"/>
<path d="M920.8 45.4297V16.6297H940.06V21.1497H925.62V27.3497H932.7C932.967 27.3497 933.32 27.363 933.76 27.3897C934.213 27.403 934.627 27.4297 935 27.4697C936.613 27.6564 937.96 28.1697 939.04 29.0097C940.133 29.8497 940.953 30.9097 941.5 32.1897C942.06 33.4697 942.34 34.8697 942.34 36.3897C942.34 37.9097 942.067 39.3164 941.52 40.6097C940.973 41.8897 940.153 42.9497 939.06 43.7897C937.98 44.6164 936.627 45.123 935 45.3097C934.627 45.3497 934.22 45.383 933.78 45.4097C933.34 45.423 932.98 45.4297 932.7 45.4297H920.8ZM925.62 40.9097H932.5C932.767 40.9097 933.067 40.8964 933.4 40.8697C933.733 40.843 934.04 40.803 934.32 40.7497C935.52 40.4964 936.347 39.9364 936.8 39.0697C937.253 38.203 937.48 37.3097 937.48 36.3897C937.48 35.4564 937.253 34.563 936.8 33.7097C936.347 32.843 935.52 32.283 934.32 32.0297C934.04 31.963 933.733 31.923 933.4 31.9097C933.067 31.883 932.767 31.8697 932.5 31.8697H925.62V40.9097ZM946.347 45.4297V16.6297H964.947V21.1497H951.167V28.2497H962.547V32.7697H951.167V40.9097H964.947V45.4297H946.347ZM980.714 46.0297C977.834 46.0297 975.368 45.403 973.314 44.1497C971.261 42.883 969.681 41.123 968.574 38.8697C967.481 36.6164 966.934 34.003 966.934 31.0297C966.934 28.0564 967.481 25.443 968.574 23.1897C969.681 20.9364 971.261 19.183 973.314 17.9297C975.368 16.663 977.834 16.0297 980.714 16.0297C984.034 16.0297 986.801 16.863 989.014 18.5297C991.228 20.183 992.781 22.4164 993.674 25.2297L988.814 26.5697C988.254 24.6897 987.301 23.223 985.954 22.1697C984.608 21.103 982.861 20.5697 980.714 20.5697C978.781 20.5697 977.168 21.003 975.874 21.8697C974.594 22.7364 973.628 23.9564 972.974 25.5297C972.334 27.0897 972.008 28.923 971.994 31.0297C971.994 33.1364 972.314 34.9764 972.954 36.5497C973.608 38.1097 974.581 39.323 975.874 40.1897C977.168 41.0564 978.781 41.4897 980.714 41.4897C982.861 41.4897 984.608 40.9564 985.954 39.8897C987.301 38.823 988.254 37.3564 988.814 35.4897L993.674 36.8297C992.781 39.643 991.228 41.883 989.014 43.5497C986.801 45.203 984.034 46.0297 980.714 46.0297ZM998.066 45.4297V16.6297H1021.41V45.4297H1016.59V21.1497H1002.89V45.4297H998.066ZM1025.01 45.4297V41.3897C1025.65 41.4297 1026.19 41.383 1026.63 41.2497C1027.07 41.103 1027.44 40.8297 1027.73 40.4297C1028.04 40.0164 1028.3 39.4364 1028.53 38.6897C1028.76 37.9297 1028.98 36.9764 1029.19 35.8297C1029.5 34.1897 1029.75 32.483 1029.95 30.7097C1030.16 28.923 1030.34 27.1697 1030.49 25.4497C1030.64 23.7164 1030.75 22.0897 1030.83 20.5697C1030.91 19.0497 1030.98 17.7364 1031.03 16.6297L1050.31 16.6297V45.4297H1045.49V21.1497H1035.49C1035.42 22.043 1035.34 23.123 1035.25 24.3897C1035.17 25.643 1035.06 27.003 1034.91 28.4697C1034.78 29.9364 1034.6 31.4564 1034.39 33.0297C1034.19 34.603 1033.94 36.1497 1033.65 37.6697C1033.38 39.0564 1033.06 40.303 1032.69 41.4097C1032.32 42.503 1031.82 43.4097 1031.19 44.1297C1030.58 44.8364 1029.77 45.3097 1028.77 45.5497C1027.78 45.7897 1026.53 45.7497 1025.01 45.4297ZM1053.92 45.4297L1063 16.6297H1070.06L1079.14 45.4297H1074.18L1065.94 19.5897H1067.02L1058.88 45.4297H1053.92ZM1058.98 39.1897V34.6897H1074.1V39.1897H1058.98ZM1087.29 45.4297V21.1497H1077.97V16.6297H1101.43V21.1497H1092.11V45.4297H1087.29ZM1104.63 45.4297V16.6297H1109.45V28.7497H1123.09V16.6297H1127.89V45.4297H1123.09V33.2697H1109.45V45.4297H1104.63ZM1145.68 46.0297C1142.8 46.0297 1140.33 45.403 1138.28 44.1497C1136.22 42.883 1134.64 41.123 1133.54 38.8697C1132.44 36.6164 1131.9 34.003 1131.9 31.0297C1131.9 28.0564 1132.44 25.443 1133.54 23.1897C1134.64 20.9364 1136.22 19.183 1138.28 17.9297C1140.33 16.663 1142.8 16.0297 1145.68 16.0297C1148.56 16.0297 1151.02 16.663 1153.08 17.9297C1155.14 19.183 1156.72 20.9364 1157.82 23.1897C1158.92 25.443 1159.48 28.0564 1159.48 31.0297C1159.48 34.003 1158.92 36.6164 1157.82 38.8697C1156.72 41.123 1155.14 42.883 1153.08 44.1497C1151.02 45.403 1148.56 46.0297 1145.68 46.0297ZM1145.68 41.4897C1147.61 41.503 1149.22 41.0764 1150.5 40.2097C1151.79 39.343 1152.76 38.123 1153.4 36.5497C1154.05 34.9764 1154.38 33.1364 1154.38 31.0297C1154.38 28.923 1154.05 27.0964 1153.4 25.5497C1152.76 23.9897 1151.79 22.7764 1150.5 21.9097C1149.22 21.043 1147.61 20.5964 1145.68 20.5697C1143.74 20.5564 1142.14 20.983 1140.86 21.8497C1139.58 22.7164 1138.61 23.9364 1137.96 25.5097C1137.32 27.083 1137 28.923 1137 31.0297C1137 33.1364 1137.32 34.9697 1137.96 36.5297C1138.6 38.0764 1139.56 39.283 1140.84 40.1497C1142.13 41.0164 1143.74 41.463 1145.68 41.4897ZM1165.46 45.4297V41.0097H1170.28V45.4297H1165.46ZM1165.46 38.2297V16.6297H1170.28V38.2297H1165.46Z" fill="url(#paint3_linear_1011_7)" fill-opacity="0.3"/>
<path d="M1226.8 45.4297V16.6297H1246.06V21.1497H1231.62V27.3497H1238.7C1238.97 27.3497 1239.32 27.363 1239.76 27.3897C1240.21 27.403 1240.63 27.4297 1241 27.4697C1242.61 27.6564 1243.96 28.1697 1245.04 29.0097C1246.13 29.8497 1246.95 30.9097 1247.5 32.1897C1248.06 33.4697 1248.34 34.8697 1248.34 36.3897C1248.34 37.9097 1248.07 39.3164 1247.52 40.6097C1246.97 41.8897 1246.15 42.9497 1245.06 43.7897C1243.98 44.6164 1242.63 45.123 1241 45.3097C1240.63 45.3497 1240.22 45.383 1239.78 45.4097C1239.34 45.423 1238.98 45.4297 1238.7 45.4297H1226.8ZM1231.62 40.9097H1238.5C1238.77 40.9097 1239.07 40.8964 1239.4 40.8697C1239.73 40.843 1240.04 40.803 1240.32 40.7497C1241.52 40.4964 1242.35 39.9364 1242.8 39.0697C1243.25 38.203 1243.48 37.3097 1243.48 36.3897C1243.48 35.4564 1243.25 34.563 1242.8 33.7097C1242.35 32.843 1241.52 32.283 1240.32 32.0297C1240.04 31.963 1239.73 31.923 1239.4 31.9097C1239.07 31.883 1238.77 31.8697 1238.5 31.8697H1231.62V40.9097ZM1252.35 45.4297V16.6297H1270.95V21.1497H1257.17V28.2497H1268.55V32.7697H1257.17V40.9097H1270.95V45.4297H1252.35ZM1286.71 46.0297C1283.83 46.0297 1281.37 45.403 1279.31 44.1497C1277.26 42.883 1275.68 41.123 1274.57 38.8697C1273.48 36.6164 1272.93 34.003 1272.93 31.0297C1272.93 28.0564 1273.48 25.443 1274.57 23.1897C1275.68 20.9364 1277.26 19.183 1279.31 17.9297C1281.37 16.663 1283.83 16.0297 1286.71 16.0297C1290.03 16.0297 1292.8 16.863 1295.01 18.5297C1297.23 20.183 1298.78 22.4164 1299.67 25.2297L1294.81 26.5697C1294.25 24.6897 1293.3 23.223 1291.95 22.1697C1290.61 21.103 1288.86 20.5697 1286.71 20.5697C1284.78 20.5697 1283.17 21.003 1281.87 21.8697C1280.59 22.7364 1279.63 23.9564 1278.97 25.5297C1278.33 27.0897 1278.01 28.923 1277.99 31.0297C1277.99 33.1364 1278.31 34.9764 1278.95 36.5497C1279.61 38.1097 1280.58 39.323 1281.87 40.1897C1283.17 41.0564 1284.78 41.4897 1286.71 41.4897C1288.86 41.4897 1290.61 40.9564 1291.95 39.8897C1293.3 38.823 1294.25 37.3564 1294.81 35.4897L1299.67 36.8297C1298.78 39.643 1297.23 41.883 1295.01 43.5497C1292.8 45.203 1290.03 46.0297 1286.71 46.0297ZM1304.07 45.4297V16.6297H1327.41V45.4297H1322.59V21.1497H1308.89V45.4297H1304.07ZM1331.01 45.4297V41.3897C1331.65 41.4297 1332.19 41.383 1332.63 41.2497C1333.07 41.103 1333.44 40.8297 1333.73 40.4297C1334.04 40.0164 1334.3 39.4364 1334.53 38.6897C1334.76 37.9297 1334.98 36.9764 1335.19 35.8297C1335.5 34.1897 1335.75 32.483 1335.95 30.7097C1336.16 28.923 1336.34 27.1697 1336.49 25.4497C1336.64 23.7164 1336.75 22.0897 1336.83 20.5697C1336.91 19.0497 1336.98 17.7364 1337.03 16.6297L1356.31 16.6297V45.4297H1351.49V21.1497H1341.49C1341.42 22.043 1341.34 23.123 1341.25 24.3897C1341.17 25.643 1341.06 27.003 1340.91 28.4697C1340.78 29.9364 1340.6 31.4564 1340.39 33.0297C1340.19 34.603 1339.94 36.1497 1339.65 37.6697C1339.38 39.0564 1339.06 40.303 1338.69 41.4097C1338.32 42.503 1337.82 43.4097 1337.19 44.1297C1336.58 44.8364 1335.77 45.3097 1334.77 45.5497C1333.78 45.7897 1332.53 45.7497 1331.01 45.4297ZM1359.92 45.4297L1369 16.6297H1376.06L1385.14 45.4297H1380.18L1371.94 19.5897H1373.02L1364.88 45.4297H1359.92ZM1364.98 39.1897V34.6897H1380.1V39.1897H1364.98ZM1393.29 45.4297V21.1497H1383.97V16.6297H1407.43V21.1497H1398.11V45.4297H1393.29ZM1410.63 45.4297V16.6297H1415.45V28.7497H1429.09V16.6297H1433.89V45.4297H1429.09V33.2697H1415.45V45.4297H1410.63ZM1451.68 46.0297C1448.8 46.0297 1446.33 45.403 1444.28 44.1497C1442.22 42.883 1440.64 41.123 1439.54 38.8697C1438.44 36.6164 1437.9 34.003 1437.9 31.0297C1437.9 28.0564 1438.44 25.443 1439.54 23.1897C1440.64 20.9364 1442.22 19.183 1444.28 17.9297C1446.33 16.663 1448.8 16.0297 1451.68 16.0297C1454.56 16.0297 1457.02 16.663 1459.08 17.9297C1461.14 19.183 1462.72 20.9364 1463.82 23.1897C1464.92 25.443 1465.48 28.0564 1465.48 31.0297C1465.48 34.003 1464.92 36.6164 1463.82 38.8697C1462.72 41.123 1461.14 42.883 1459.08 44.1497C1457.02 45.403 1454.56 46.0297 1451.68 46.0297ZM1451.68 41.4897C1453.61 41.503 1455.22 41.0764 1456.5 40.2097C1457.79 39.343 1458.76 38.123 1459.4 36.5497C1460.05 34.9764 1460.38 33.1364 1460.38 31.0297C1460.38 28.923 1460.05 27.0964 1459.4 25.5497C1458.76 23.9897 1457.79 22.7764 1456.5 21.9097C1455.22 21.043 1453.61 20.5964 1451.68 20.5697C1449.74 20.5564 1448.14 20.983 1446.86 21.8497C1445.58 22.7164 1444.61 23.9364 1443.96 25.5097C1443.32 27.083 1443 28.923 1443 31.0297C1443 33.1364 1443.32 34.9697 1443.96 36.5297C1444.6 38.0764 1445.56 39.283 1446.84 40.1497C1448.13 41.0164 1449.74 41.463 1451.68 41.4897ZM1471.46 45.4297V41.0097H1476.28V45.4297H1471.46ZM1471.46 38.2297V16.6297H1476.28V38.2297H1471.46Z" fill="url(#paint4_linear_1011_7)" fill-opacity="0.3"/>
<path d="M1532.8 45.4297V16.6297H1552.06V21.1497H1537.62V27.3497H1544.7C1544.97 27.3497 1545.32 27.363 1545.76 27.3897C1546.21 27.403 1546.63 27.4297 1547 27.4697C1548.61 27.6564 1549.96 28.1697 1551.04 29.0097C1552.13 29.8497 1552.95 30.9097 1553.5 32.1897C1554.06 33.4697 1554.34 34.8697 1554.34 36.3897C1554.34 37.9097 1554.07 39.3164 1553.52 40.6097C1552.97 41.8897 1552.15 42.9497 1551.06 43.7897C1549.98 44.6164 1548.63 45.123 1547 45.3097C1546.63 45.3497 1546.22 45.383 1545.78 45.4097C1545.34 45.423 1544.98 45.4297 1544.7 45.4297H1532.8ZM1537.62 40.9097H1544.5C1544.77 40.9097 1545.07 40.8964 1545.4 40.8697C1545.73 40.843 1546.04 40.803 1546.32 40.7497C1547.52 40.4964 1548.35 39.9364 1548.8 39.0697C1549.25 38.203 1549.48 37.3097 1549.48 36.3897C1549.48 35.4564 1549.25 34.563 1548.8 33.7097C1548.35 32.843 1547.52 32.283 1546.32 32.0297C1546.04 31.963 1545.73 31.923 1545.4 31.9097C1545.07 31.883 1544.77 31.8697 1544.5 31.8697H1537.62V40.9097ZM1558.35 45.4297V16.6297H1576.95V21.1497H1563.17V28.2497H1574.55V32.7697H1563.17V40.9097H1576.95V45.4297H1558.35ZM1592.71 46.0297C1589.83 46.0297 1587.37 45.403 1585.31 44.1497C1583.26 42.883 1581.68 41.123 1580.57 38.8697C1579.48 36.6164 1578.93 34.003 1578.93 31.0297C1578.93 28.0564 1579.48 25.443 1580.57 23.1897C1581.68 20.9364 1583.26 19.183 1585.31 17.9297C1587.37 16.663 1589.83 16.0297 1592.71 16.0297C1596.03 16.0297 1598.8 16.863 1601.01 18.5297C1603.23 20.183 1604.78 22.4164 1605.67 25.2297L1600.81 26.5697C1600.25 24.6897 1599.3 23.223 1597.95 22.1697C1596.61 21.103 1594.86 20.5697 1592.71 20.5697C1590.78 20.5697 1589.17 21.003 1587.87 21.8697C1586.59 22.7364 1585.63 23.9564 1584.97 25.5297C1584.33 27.0897 1584.01 28.923 1583.99 31.0297C1583.99 33.1364 1584.31 34.9764 1584.95 36.5497C1585.61 38.1097 1586.58 39.323 1587.87 40.1897C1589.17 41.0564 1590.78 41.4897 1592.71 41.4897C1594.86 41.4897 1596.61 40.9564 1597.95 39.8897C1599.3 38.823 1600.25 37.3564 1600.81 35.4897L1605.67 36.8297C1604.78 39.643 1603.23 41.883 1601.01 43.5497C1598.8 45.203 1596.03 46.0297 1592.71 46.0297ZM1610.07 45.4297V16.6297H1633.41V45.4297H1628.59V21.1497H1614.89V45.4297H1610.07ZM1637.01 45.4297V41.3897C1637.65 41.4297 1638.19 41.383 1638.63 41.2497C1639.07 41.103 1639.44 40.8297 1639.73 40.4297C1640.04 40.0164 1640.3 39.4364 1640.53 38.6897C1640.76 37.9297 1640.98 36.9764 1641.19 35.8297C1641.5 34.1897 1641.75 32.483 1641.95 30.7097C1642.16 28.923 1642.34 27.1697 1642.49 25.4497C1642.64 23.7164 1642.75 22.0897 1642.83 20.5697C1642.91 19.0497 1642.98 17.7364 1643.03 16.6297L1662.31 16.6297V45.4297H1657.49V21.1497H1647.49C1647.42 22.043 1647.34 23.123 1647.25 24.3897C1647.17 25.643 1647.06 27.003 1646.91 28.4697C1646.78 29.9364 1646.6 31.4564 1646.39 33.0297C1646.19 34.603 1645.94 36.1497 1645.65 37.6697C1645.38 39.0564 1645.06 40.303 1644.69 41.4097C1644.32 42.503 1643.82 43.4097 1643.19 44.1297C1642.58 44.8364 1641.77 45.3097 1640.77 45.5497C1639.78 45.7897 1638.53 45.7497 1637.01 45.4297ZM1665.92 45.4297L1675 16.6297H1682.06L1691.14 45.4297H1686.18L1677.94 19.5897H1679.02L1670.88 45.4297H1665.92ZM1670.98 39.1897V34.6897H1686.1V39.1897H1670.98ZM1699.29 45.4297V21.1497H1689.97V16.6297H1713.43V21.1497H1704.11V45.4297H1699.29ZM1716.63 45.4297V16.6297H1721.45V28.7497H1735.09V16.6297H1739.89V45.4297H1735.09V33.2697H1721.45V45.4297H1716.63ZM1757.68 46.0297C1754.8 46.0297 1752.33 45.403 1750.28 44.1497C1748.22 42.883 1746.64 41.123 1745.54 38.8697C1744.44 36.6164 1743.9 34.003 1743.9 31.0297C1743.9 28.0564 1744.44 25.443 1745.54 23.1897C1746.64 20.9364 1748.22 19.183 1750.28 17.9297C1752.33 16.663 1754.8 16.0297 1757.68 16.0297C1760.56 16.0297 1763.02 16.663 1765.08 17.9297C1767.14 19.183 1768.72 20.9364 1769.82 23.1897C1770.92 25.443 1771.48 28.0564 1771.48 31.0297C1771.48 34.003 1770.92 36.6164 1769.82 38.8697C1768.72 41.123 1767.14 42.883 1765.08 44.1497C1763.02 45.403 1760.56 46.0297 1757.68 46.0297ZM1757.68 41.4897C1759.61 41.503 1761.22 41.0764 1762.5 40.2097C1763.79 39.343 1764.76 38.123 1765.4 36.5497C1766.05 34.9764 1766.38 33.1364 1766.38 31.0297C1766.38 28.923 1766.05 27.0964 1765.4 25.5497C1764.76 23.9897 1763.79 22.7764 1762.5 21.9097C1761.22 21.043 1759.61 20.5964 1757.68 20.5697C1755.74 20.5564 1754.14 20.983 1752.86 21.8497C1751.58 22.7164 1750.61 23.9364 1749.96 25.5097C1749.32 27.083 1749 28.923 1749 31.0297C1749 33.1364 1749.32 34.9697 1749.96 36.5297C1750.6 38.0764 1751.56 39.283 1752.84 40.1497C1754.13 41.0164 1755.74 41.463 1757.68 41.4897ZM1777.46 45.4297V41.0097H1782.28V45.4297H1777.46ZM1777.46 38.2297V16.6297H1782.28V38.2297H1777.46Z" fill="url(#paint5_linear_1011_7)" fill-opacity="0.3"/>
<defs>
<linearGradient id="paint0_linear_1011_7" x1="0.102716" y1="15.8094" x2="257.644" y2="12.2645" gradientUnits="userSpaceOnUse">
<stop stop-color="#904A27"/>
<stop offset="0.5" stop-color="#FBA76B"/>
<stop offset="1" stop-color="#904A27"/>
</linearGradient>
<linearGradient id="paint1_linear_1011_7" x1="306.103" y1="15.8094" x2="563.644" y2="12.2645" gradientUnits="userSpaceOnUse">
<stop stop-color="#904A27"/>
<stop offset="0.5" stop-color="#FBA76B"/>
<stop offset="1" stop-color="#904A27"/>
</linearGradient>
<linearGradient id="paint2_linear_1011_7" x1="612.103" y1="15.8094" x2="869.644" y2="12.2645" gradientUnits="userSpaceOnUse">
<stop stop-color="#904A27"/>
<stop offset="0.5" stop-color="#FBA76B"/>
<stop offset="1" stop-color="#904A27"/>
</linearGradient>
<linearGradient id="paint3_linear_1011_7" x1="918.103" y1="15.8094" x2="1175.64" y2="12.2645" gradientUnits="userSpaceOnUse">
<stop stop-color="#904A27"/>
<stop offset="0.5" stop-color="#FBA76B"/>
<stop offset="1" stop-color="#904A27"/>
</linearGradient>
<linearGradient id="paint4_linear_1011_7" x1="1224.1" y1="15.8094" x2="1481.64" y2="12.2645" gradientUnits="userSpaceOnUse">
<stop stop-color="#904A27"/>
<stop offset="0.5" stop-color="#FBA76B"/>
<stop offset="1" stop-color="#904A27"/>
</linearGradient>
<linearGradient id="paint5_linear_1011_7" x1="1530.1" y1="15.8094" x2="1787.64" y2="12.2645" gradientUnits="userSpaceOnUse">
<stop stop-color="#904A27"/>
<stop offset="0.5" stop-color="#FBA76B"/>
<stop offset="1" stop-color="#904A27"/>
</linearGradient>
</defs>
</svg>
