<svg width="2274" height="253" viewBox="0 0 2274 253" fill="none" xmlns="http://www.w3.org/2000/svg">
<path fill-rule="evenodd" clip-rule="evenodd" d="M0 4.73535H136.505V47.9947H91.5696V247.68H44.2608V47.9947H0V4.73535ZM160.493 4.73535H207.802V170.632L308.494 4.73535H361.202V247.68H313.893V84.4832L213.201 247.68H160.493V4.73535ZM517.606 4.73535H381.101V47.9947H425.361V247.68H472.67V47.9947H517.606V4.73535ZM711.534 247.68L687.216 186.525H596.321L572.329 247.68H521.994L624.036 4.73535H659.849L761.891 247.68H711.534ZM641.932 68.5903L612.867 143.592H670.974L641.932 68.5903ZM829.109 100.028V4.73535H781.8V247.68H829.109V143.265H916.281V247.68H963.589V4.73535H916.281V100.028H829.109Z" fill="url(#paint0_linear_617_175)"/>
<path fill-rule="evenodd" clip-rule="evenodd" d="M1776.11 252.742C1847.39 252.742 1905.17 196.659 1905.17 127.732C1905.17 57.1276 1847.39 0.0217712 1776.11 0C1704.81 0 1647.03 57.1058 1647.03 127.732C1647.03 196.659 1704.81 252.742 1776.11 252.742ZM1776.11 209.504C1731.5 209.504 1695.69 172.667 1695.69 127.732C1695.69 80.7711 1731.5 43.2593 1776.11 43.2593C1820.72 43.2593 1856.53 80.7711 1856.53 127.732C1856.53 172.667 1820.72 209.504 1776.11 209.504ZM1075.39 4.73535H1001.41V247.658H1048.37V159.137H1075.74C1120 159.137 1155.81 124.346 1155.81 81.7618C1155.81 39.1992 1119.65 4.73535 1075.39 4.73535ZM1069.66 115.899H1048.37V47.9729H1069.66C1090.63 47.9729 1107.17 62.8427 1107.17 81.7618C1107.17 100.703 1090.28 115.899 1069.66 115.899ZM1320.68 47.9947V4.73535H1187.55V247.724H1320.68V204.464H1234.86V143.636H1320.68V100.376H1234.86V47.9947H1320.68ZM1465.93 247.68L1401.4 71.3117V247.68H1354.09V4.73535H1423.37L1485.55 190.901L1547.73 4.73535H1617.68V247.68H1570.37V70.9633L1505.84 247.68H1465.93ZM1981.87 4.73535V100.028H2069.04V4.73535H2116.35V247.68H2069.04V143.265H1981.87V247.68H1934.56V4.73535H1981.87ZM2273.1 4.73535H2136.6V47.9947H2180.86V247.68H2228.17V47.9947H2273.1V4.73535Z" fill="url(#paint1_linear_617_175)"/>
<defs>
<linearGradient id="paint0_linear_617_175" x1="648" y1="248" x2="648" y2="-42" gradientUnits="userSpaceOnUse">
<stop stop-color="#F9A56A" stop-opacity="0.71"/>
<stop offset="1" stop-color="#F1A067" stop-opacity="0"/>
</linearGradient>
<linearGradient id="paint1_linear_617_175" x1="2204.85" y1="4.73535" x2="2204.85" y2="247.68" gradientUnits="userSpaceOnUse">
<stop stop-color="#FAA66A" stop-opacity="0.7"/>
<stop offset="1" stop-color="#FAA66A" stop-opacity="0"/>
</linearGradient>
</defs>
</svg>
