<svg width="28" height="28" viewBox="0 0 28 28" fill="none" xmlns="http://www.w3.org/2000/svg">
<g clip-path="url(#clip0_574_5804)">
<path d="M10.2043 4.51211C11.1588 4.81476 11.9093 5.56539 12.2119 6.51994C12.3386 6.91935 12.7055 7.18805 13.125 7.18805C13.5445 7.18805 13.9113 6.91939 14.0381 6.5199C14.3407 5.56535 15.0912 4.81476 16.0459 4.51194C16.4455 4.3852 16.7139 4.01832 16.7139 3.59918C16.7139 3.17988 16.4455 2.81299 16.0459 2.68625C16.0459 2.68625 16.0459 2.68609 16.0458 2.68609C15.0912 2.38344 14.3407 1.63281 14.038 0.678418C13.9113 0.278844 13.5445 0.0103149 13.125 0.0103149C12.7055 0.0103149 12.3386 0.278844 12.2119 0.678418C11.9093 1.63285 11.1588 2.38344 10.2041 2.68625C9.8045 2.81299 9.53613 3.17988 9.53613 3.59918C9.5356 3.80271 9.60015 4.00108 9.72035 4.16532C9.84055 4.32956 10.0101 4.45107 10.2043 4.51211ZM2.67578 6.51994C2.80252 6.91935 3.1694 7.18805 3.58887 7.18805C4.00834 7.18805 4.37522 6.91939 4.50196 6.5199C4.80461 5.56535 5.55503 4.81476 6.50979 4.51194C6.90937 4.3852 7.17773 4.01832 7.17773 3.59918C7.17773 3.17988 6.90937 2.81299 6.50979 2.68625C6.50979 2.68625 6.5098 2.68609 6.50963 2.68609C5.55503 2.38344 4.80461 1.63281 4.50192 0.678418C4.37522 0.278844 4.00838 0.0103149 3.58887 0.0103149C3.16936 0.0103149 2.80252 0.278844 2.67578 0.678418C2.37313 1.63285 1.6227 2.38344 0.667942 2.68625C0.268368 2.81299 3.2776e-06 3.17988 3.2776e-06 3.59918C-0.000529974 3.80271 0.0640179 4.00108 0.184221 4.16532C0.304424 4.32956 0.473987 4.45107 0.668148 4.51211C1.6227 4.81476 2.37317 5.56539 2.67578 6.51994ZM25.5821 2.68625H25.5819C24.6273 2.38344 23.8769 1.63285 23.5742 0.678418C23.4475 0.278844 23.0806 0.0103149 22.6611 0.0103149C22.2416 0.0103149 21.8748 0.278844 21.748 0.678418C21.4454 1.63285 20.6949 2.38344 19.7402 2.68625C19.3406 2.81299 19.0723 3.17988 19.0723 3.59918C19.0717 3.80271 19.1363 4.00108 19.2565 4.16532C19.3767 4.32956 19.5462 4.45107 19.7404 4.51211C20.6949 4.81476 21.4454 5.56539 21.748 6.51994C21.8748 6.91935 22.2417 7.18805 22.6611 7.18805C23.0806 7.18805 23.4475 6.91939 23.5742 6.5199C23.8769 5.56535 24.6273 4.81476 25.5821 4.51194C25.9816 4.3852 26.25 4.01832 26.25 3.59918C26.25 3.17988 25.9816 2.81299 25.5821 2.68625ZM16.126 15.4937H9.66431L13.125 23.6968L16.5857 15.4937H16.126ZM8.63764 12.4175L11.5209 8.82867H5.7547L8.63764 12.4175ZM20.4953 8.82867H14.7294L17.6124 12.4175L20.4953 8.82867ZM13.8873 25.8471L25.769 15.4937H18.2551L13.8873 25.8471ZM0.480993 15.4937L12.3627 25.8471L7.99485 15.4937H0.480993ZM13.125 9.28739L9.3751 13.9556H16.8751L13.125 9.28739ZM18.3497 13.9556H25.8496L22.0995 9.28739L18.3497 13.9556ZM4.15029 9.28739L0.400357 13.9556H7.90027L4.15029 9.28739Z" fill="#FBA76B"/>
</g>
<defs>
<clipPath id="clip0_574_5804">
<rect width="28" height="28" fill="white"/>
</clipPath>
</defs>
</svg>
