<svg width="28" height="28" viewBox="0 0 28 28" fill="none" xmlns="http://www.w3.org/2000/svg">
<g clip-path="url(#clip0_574_5800)">
<path d="M26.8466 2.99173C26.7699 2.91046 26.6775 2.84571 26.5749 2.80146C26.4723 2.7572 26.3617 2.73437 26.25 2.73438H22.7051V0.820312C22.7051 0.3675 22.3382 0 21.8848 0H6.11512C5.66176 0 5.29481 0.3675 5.29481 0.820312V2.73438H1.74997C1.63823 2.73437 1.52767 2.7572 1.42507 2.80145C1.32247 2.84571 1.23 2.91046 1.15332 2.99173C1.07664 3.073 1.01738 3.16908 0.979159 3.27408C0.940941 3.37908 0.924579 3.49077 0.931075 3.60232L1.22546 8.66545C1.38143 11.3485 3.47481 13.4875 6.09598 13.7533L6.09604 13.7534C7.36861 16.5014 10.0335 18.4789 13.1797 18.7742V23.0781H10.2774C8.68111 23.0781 7.38283 24.3764 7.38283 25.9727V27.1797C7.38283 27.6325 7.75033 28 8.20315 28H19.7969C20.2497 28 20.6172 27.6325 20.6172 27.1797V25.9727C20.6172 24.3764 19.3189 23.0781 17.7226 23.0781H14.8203V18.7742C17.9664 18.4789 20.6314 16.5014 21.9039 13.7534L21.904 13.7533C24.5252 13.4875 26.6185 11.3485 26.7745 8.66545L27.0689 3.60232C27.0754 3.49077 27.059 3.37908 27.0208 3.27408C26.9826 3.16909 26.9233 3.07301 26.8466 2.99173ZM2.86324 8.57024L2.61933 4.375H5.29481V10.1073C5.29481 10.7431 5.36311 11.363 5.49316 11.9599C4.03815 11.4938 2.95632 10.1712 2.86324 8.57024ZM17.5344 9.59875C17.9298 9.81969 18.0714 10.3195 17.8505 10.7149C17.7793 10.8425 17.6753 10.9488 17.5493 11.0228C17.4232 11.0967 17.2797 11.1356 17.1336 11.1355C16.9979 11.1355 16.8607 11.1016 16.7343 11.031L16.0442 10.6455L14.8203 11.352V12.2046C14.8203 12.658 14.4528 13.0249 14 13.0249C13.5472 13.0249 13.1797 12.658 13.1797 12.2046V11.352L11.9557 10.6455L11.2656 11.031C11.1436 11.0994 11.0062 11.1354 10.8664 11.1355C10.5787 11.1355 10.2998 10.984 10.1494 10.7149C9.92848 10.3195 10.0701 9.81969 10.4655 9.59875L11.1748 9.20227V7.92805L10.3742 7.48234C9.97825 7.26195 9.83606 6.76211 10.057 6.36672C10.2774 5.97078 10.7767 5.82859 11.1726 6.04898L11.9525 6.4832L13.1797 5.77445V4.92188C13.1797 4.46906 13.5472 4.10156 14 4.10156C14.4528 4.10156 14.8203 4.46906 14.8203 4.92188V5.77445L16.0475 6.4832L16.8273 6.04898C17.2232 5.82859 17.7225 5.97078 17.9429 6.36672C18.1639 6.76211 18.0217 7.26195 17.6257 7.48234L16.8251 7.92805V9.20227L17.5344 9.59875ZM25.1367 8.57024C25.0436 10.1712 23.9618 11.4938 22.5068 11.9599C22.639 11.3513 22.7055 10.7302 22.7051 10.1073V4.375H25.3806L25.1367 8.57024Z" fill="#FBA76B"/>
<path d="M12.8154 7.87936V9.2471L14 9.93124L15.1845 9.2471V7.87936L14 7.19522L12.8154 7.87936Z" fill="#FBA76B"/>
</g>
<defs>
<clipPath id="clip0_574_5800">
<rect width="28" height="28" fill="white"/>
</clipPath>
</defs>
</svg>
