<svg width="28" height="28" viewBox="0 0 28 28" fill="none" xmlns="http://www.w3.org/2000/svg">
<g clip-path="url(#clip0_574_5797)">
<path d="M26.0028 13.0869H25.2651C25.0095 12.5983 24.7028 12.1293 24.3479 11.6847V6.69565C24.3479 6.19159 23.9389 5.78259 23.4349 5.78259C21.6789 5.78259 20.1185 6.77588 19.3565 8.2905C11.4526 5.73206 3.6522 10.635 3.6522 16.7391H3.22421C2.45323 16.7391 1.82612 16.112 1.82612 15.341V14C1.82612 13.4959 1.41712 13.0869 0.913062 13.0869C0.409008 13.0869 0 13.4959 0 14V15.341C0 17.1189 1.44627 18.5652 3.22421 18.5652H3.87636C4.34137 20.4825 5.52787 22.2279 7.30439 23.5495V26.7826C7.30439 27.2866 7.7134 27.6956 8.21745 27.6956H11.8696C12.3737 27.6956 12.7827 27.2866 12.7827 26.7826V25.7305C13.4669 25.8184 14.2242 25.8695 14.9132 25.8695C15.6021 25.8695 16.3594 25.8184 17.0436 25.7305V26.7826C17.0436 27.2866 17.4526 27.6956 17.9567 27.6956H21.6089C22.1129 27.6956 22.522 27.2866 22.522 26.7826V23.5495C23.7007 22.6722 24.6363 21.5944 25.2652 20.3913H26.0029C27.1044 20.3913 28.0002 19.4955 28.0002 18.3941V15.0843C28 13.9828 27.1042 13.0869 26.0028 13.0869ZM14.9131 13.0869C13.3515 13.0869 11.6366 13.563 10.6451 14.2716C10.232 14.5658 9.66235 14.467 9.37119 14.0594C9.07818 13.6493 9.17323 13.0792 9.58338 12.7855C10.8799 11.8594 12.9716 11.2608 14.9131 11.2608C15.4171 11.2608 15.8261 11.6698 15.8261 12.1739C15.8261 12.6779 15.4171 13.0869 14.9131 13.0869ZM21.6087 16.7391C21.1045 16.7391 20.6956 16.3303 20.6956 15.8261C20.6956 15.3218 21.1044 14.913 21.6087 14.913C22.1129 14.913 22.5217 15.3218 22.5217 15.8261C22.5217 16.3303 22.1129 16.7391 21.6087 16.7391ZM7.30434 0.304321C5.29041 0.304321 3.65214 1.94254 3.65214 3.95652C3.65214 5.97049 5.29036 7.60871 7.30434 7.60871C9.31826 7.60871 10.9565 5.97049 10.9565 3.95652C10.9565 1.94254 9.31826 0.304321 7.30434 0.304321Z" fill="#FBA76B"/>
</g>
<defs>
<clipPath id="clip0_574_5797">
<rect width="28" height="28" fill="white"/>
</clipPath>
</defs>
</svg>
