<svg width="28" height="28" viewBox="0 0 28 28" fill="none" xmlns="http://www.w3.org/2000/svg">
<g clip-path="url(#clip0_574_5793)">
<path d="M4.10047 4.10047C6.74477 1.45627 10.2605 0 14 0C17.3296 0 20.498 1.17075 22.9995 3.27365L22.9099 2.65907C22.8444 2.2108 23.1549 1.79435 23.6032 1.729C24.0517 1.66343 24.4679 1.974 24.5333 2.42238L24.9801 5.48674C25.0709 5.96553 24.6308 6.50081 24.0998 6.43344C24.0831 6.43202 24.0664 6.43038 24.0497 6.42791L24.0469 6.42748L24.0452 6.4272L21.0259 5.97937C20.5777 5.91287 20.2683 5.49571 20.3348 5.04755C20.4012 4.59949 20.8184 4.29034 21.2666 4.35646L21.8369 4.44106C19.6456 2.64091 16.8917 1.64062 14 1.64062C10.6987 1.64062 7.595 2.92622 5.26061 5.26061C2.92622 7.595 1.64062 10.6987 1.64062 14C1.64062 17.3013 2.92622 20.405 5.26061 22.7394C7.595 25.0738 10.6987 26.3594 14 26.3594C17.3013 26.3594 20.405 25.0738 22.7394 22.7394C25.0738 20.405 26.3594 17.3013 26.3594 14C26.3594 13.547 26.7267 13.1797 27.1797 13.1797C27.6327 13.1797 28 13.547 28 14C28 17.7395 26.5437 21.2552 23.8995 23.8995C21.2552 26.5437 17.7395 28 14 28C10.2605 28 6.74477 26.5437 4.10047 23.8995C1.45627 21.2552 0 17.7395 0 14C0 10.2605 1.45627 6.74477 4.10047 4.10047Z" fill="#FBA76B"/>
<path d="M8.74924 9.56978C8.6415 9.56992 8.53479 9.54877 8.43525 9.50753C8.33571 9.46629 8.2453 9.40578 8.16923 9.32948L7.12087 8.28117C5.99452 9.63447 5.26045 11.3254 5.0918 13.1797H6.57443C7.02746 13.1797 7.39474 13.547 7.39474 14C7.39474 14.453 7.02746 14.8203 6.57443 14.8203H5.0918C5.2604 16.6747 5.99452 18.3655 7.12087 19.7188L8.16923 18.6704C8.48953 18.3501 9.00895 18.3501 9.32931 18.6704C9.64967 18.9907 9.64967 19.5102 9.32931 19.8305L8.28095 20.8789C9.63425 22.0052 11.3251 22.7393 13.1794 22.9079V21.4253C13.1794 20.9722 13.5467 20.6049 13.9997 20.6049C14.4528 20.6049 14.82 20.9722 14.82 21.4253V22.9079C16.6744 22.7393 18.3652 22.0052 19.7185 20.8789L18.6702 19.8305C18.3498 19.5102 18.3498 18.9908 18.6702 18.6704C18.9905 18.3501 19.5099 18.3501 19.8302 18.6704L20.8786 19.7188C22.0049 18.3655 22.739 16.6747 22.9077 14.8203H21.4251C20.9721 14.8203 20.6048 14.453 20.6048 14C20.6048 13.547 20.9721 13.1797 21.4251 13.1797H22.9077C22.7391 11.3254 22.0049 9.63447 20.8786 8.28117L19.8302 9.32948C19.7542 9.40576 19.6638 9.46627 19.5642 9.5075C19.4647 9.54874 19.358 9.5699 19.2502 9.56978C19.1425 9.56992 19.0358 9.54876 18.9362 9.50752C18.8367 9.46628 18.7462 9.40578 18.6702 9.32948C18.3499 9.00917 18.3499 8.48975 18.6702 8.16939L19.7185 7.12109C18.3652 5.9948 16.6744 5.26067 14.82 5.09207V6.5747C14.82 7.02774 14.4528 7.39502 13.9997 7.39502C13.5467 7.39502 13.1794 7.02774 13.1794 6.5747V5.09207C11.3251 5.26067 9.63425 5.9948 8.28095 7.12114L9.32931 8.16945C9.64967 8.48975 9.64967 9.00912 9.32931 9.32953C9.25321 9.40581 9.16279 9.4663 9.06325 9.50753C8.9637 9.54875 8.85699 9.56991 8.74924 9.56978ZM13.1785 11.8453C13.1785 11.3922 13.5458 11.025 13.9989 11.025C14.4519 11.025 14.8192 11.3922 14.8192 11.8453V13.1816H16.1171C16.5701 13.1816 16.9374 13.5489 16.9374 14.0019C16.9374 14.455 16.5701 14.8222 16.1171 14.8222H13.9989C13.5458 14.8222 13.1785 14.455 13.1785 14.0019V11.8453Z" fill="#FBA76B"/>
</g>
<defs>
<clipPath id="clip0_574_5793">
<rect width="28" height="28" fill="white"/>
</clipPath>
</defs>
</svg>
