<svg width="151" height="97" viewBox="0 0 151 97" fill="none" xmlns="http://www.w3.org/2000/svg">
<path fill-rule="evenodd" clip-rule="evenodd" d="M10.5461 15.7469C13.9944 14.8574 16.542 11.7262 16.542 8C16.542 3.58172 12.9603 0 8.54199 0C4.12372 0 0.541992 3.58172 0.541992 8C0.541992 12.0725 3.58508 15.4343 7.52142 15.9355C15.3505 58.2121 69.3583 101.567 142.212 81.3401L129.387 93.7482C128.791 94.3243 128.776 95.2739 129.352 95.8693C129.928 96.4647 130.877 96.4804 131.473 95.9043L148.722 79.2167L150.535 77.4628L148.128 76.7075L123.152 68.8688C122.361 68.6207 121.52 69.0604 121.271 69.8508C121.023 70.6412 121.463 71.4831 122.253 71.7312L142.595 78.1154C70.7371 98.7122 18.3362 56.1496 10.5461 15.7469Z" fill="url(#paint0_linear_686_852)"/>
<defs>
<linearGradient id="paint0_linear_686_852" x1="10.5" y1="3.38494e-06" x2="151" y2="96" gradientUnits="userSpaceOnUse">
<stop stop-color="#904A27"/>
<stop offset="0.5" stop-color="#FBA76B"/>
<stop offset="1" stop-color="#904A27"/>
</linearGradient>
</defs>
</svg>
