<svg width="150" height="81" viewBox="0 0 150 81" fill="none" xmlns="http://www.w3.org/2000/svg">
<path fill-rule="evenodd" clip-rule="evenodd" d="M2.71627 1.68008L0.5 0.475586V2.99802V26.998C0.5 27.8264 1.17157 28.498 2 28.498C2.82843 28.498 3.5 27.8264 3.5 26.998V9.35343C25.4155 51.5412 54.8935 71.7035 81.044 78.0295C94.6756 81.327 107.398 80.8606 117.628 77.7827C126.648 75.0693 133.843 70.2846 137.908 64.1479C138.989 64.6918 140.209 64.998 141.501 64.998C145.919 64.998 149.501 61.4163 149.501 56.998C149.501 52.5797 145.919 48.998 141.501 48.998C137.083 48.998 133.501 52.5797 133.501 56.998C133.501 59.0386 134.265 60.9008 135.523 62.3141C131.976 67.782 125.435 72.3015 116.764 74.9099C107.094 77.8192 94.9167 78.2989 81.7494 75.1136C56.2848 68.9535 27.0964 49.0699 5.44572 6.5779L24.2837 16.816C25.0116 17.2115 25.9224 16.9422 26.3179 16.2143C26.7135 15.4864 26.4441 14.5757 25.7163 14.1801L2.71627 1.68008Z" fill="url(#paint0_linear_582_6278)"/>
<defs>
<linearGradient id="paint0_linear_582_6278" x1="-36.7502" y1="-33.2981" x2="1.20969" y2="101.14" gradientUnits="userSpaceOnUse">
<stop stop-color="#904A27"/>
<stop offset="1" stop-color="#FBA76B"/>
</linearGradient>
</defs>
</svg>
