<svg width="35" height="36" viewBox="0 0 35 36" fill="none" xmlns="http://www.w3.org/2000/svg">
<rect x="35" y="0.176758" width="35" height="35" rx="6" transform="rotate(90 35 0.176758)" fill="url(#paint0_linear_614_320)"/>
<g clip-path="url(#clip0_614_320)">
<path d="M21.0225 19.703H20.2345L19.9552 19.4337C20.9327 18.2965 21.5213 16.8202 21.5213 15.2142C21.5213 11.6332 18.6185 8.73047 15.0375 8.73047C11.4564 8.73047 8.55371 11.6332 8.55371 15.2142C8.55371 18.7953 11.4564 21.698 15.0375 21.698C16.6435 21.698 18.1198 21.1095 19.2569 20.1319L19.5262 20.4112V21.1993L24.5138 26.1768L26 24.6905L21.0225 19.703ZM15.0375 19.703C12.5537 19.703 10.5487 17.698 10.5487 15.2142C10.5487 12.7305 12.5537 10.7255 15.0375 10.7255C17.5213 10.7255 19.5262 12.7305 19.5262 15.2142C19.5262 17.698 17.5213 19.703 15.0375 19.703Z" fill="white"/>
<path d="M17.5315 15.7132H15.5365V17.7082H14.539V15.7132H12.5439V14.7157H14.539V12.7207H15.5365V14.7157H17.5315V15.7132Z" fill="white"/>
</g>
<defs>
<linearGradient id="paint0_linear_614_320" x1="38" y1="16.6768" x2="73" y2="18.1768" gradientUnits="userSpaceOnUse">
<stop stop-color="#904A27"/>
<stop offset="1" stop-color="#FBA76B"/>
</linearGradient>
<clipPath id="clip0_614_320">
<rect width="21" height="21" fill="white" transform="translate(7 7.17676)"/>
</clipPath>
</defs>
</svg>
