<svg width="35" height="35" viewBox="0 0 35 35" fill="none" xmlns="http://www.w3.org/2000/svg">
<rect x="35" width="35" height="35" rx="6" transform="rotate(90 35 0)" fill="url(#paint0_linear_686_772)"/>
<path d="M23.3333 17.2717L21.7 15.6739L18.6667 18.6413L18.6667 7L16.3333 7L16.3333 18.6413L13.3 15.6739L11.6667 17.2717L17.5 22.9783L23.3333 17.2717ZM9.33333 25.7174L9.33333 22.0652L7 22.0652L7 25.7174C7 26.9728 8.05 28 9.33333 28L25.6667 28C26.95 28 28 26.9728 28 25.7174L28 22.0652L25.6667 22.0652L25.6667 25.7174L9.33333 25.7174Z" fill="white"/>
<defs>
<linearGradient id="paint0_linear_686_772" x1="38" y1="16.5" x2="73" y2="18" gradientUnits="userSpaceOnUse">
<stop stop-color="#904A27"/>
<stop offset="1" stop-color="#FBA76B"/>
</linearGradient>
</defs>
</svg>
