<svg width="20" height="20" viewBox="0 0 20 20" fill="none" xmlns="http://www.w3.org/2000/svg">
<rect width="20" height="20" rx="4" fill="#4086F4"/>
<path d="M14.5459 7.90174H5.31513C4.88995 7.90174 4.5459 7.55769 4.5459 7.13251C4.5459 6.70733 4.88995 6.36328 5.31513 6.36328H14.5459C14.9711 6.36328 15.3151 6.70733 15.3151 7.13251C15.3151 7.55769 14.9711 7.90174 14.5459 7.90174ZM14.5459 10.9787H5.31513C4.88995 10.9787 4.5459 10.6346 4.5459 10.2094C4.5459 9.78426 4.88995 9.4402 5.31513 9.4402H14.5459C14.9711 9.4402 15.3151 9.78426 15.3151 10.2094C15.3151 10.6346 14.9711 10.9787 14.5459 10.9787ZM11.469 14.0556H5.31513C4.88995 14.0556 4.5459 13.7115 4.5459 13.2864C4.5459 12.8612 4.88995 12.5171 5.31513 12.5171H11.469C11.8942 12.5171 12.2382 12.8612 12.2382 13.2864C12.2382 13.7115 11.8942 14.0556 11.469 14.0556Z" fill="#FFF5F5"/>
</svg>
