<svg width="57" height="76" viewBox="0 0 57 76" fill="none" xmlns="http://www.w3.org/2000/svg">
<g clip-path="url(#clip0_576_6001)">
<path d="M33.25 20.1875V0H3.5625C1.58828 0 0 1.58828 0 3.5625V72.4375C0 74.4117 1.58828 76 3.5625 76H53.4375C55.4117 76 57 74.4117 57 72.4375V23.75H36.8125C34.8531 23.75 33.25 22.1469 33.25 20.1875ZM44.598 51.5612L30.2857 65.7667C29.2986 66.7479 27.7044 66.7479 26.7173 65.7667L12.4049 51.5612C10.8983 50.0665 11.9552 47.5 14.0748 47.5H23.75V35.625C23.75 34.3128 24.8128 33.25 26.125 33.25H30.875C32.1872 33.25 33.25 34.3128 33.25 35.625V47.5H42.9252C45.0448 47.5 46.1017 50.0665 44.598 51.5612ZM55.9609 15.5859L41.4289 1.03906C40.7609 0.371094 39.8555 0 38.9055 0H38V19H57V18.0945C57 17.1594 56.6289 16.2539 55.9609 15.5859Z" fill="url(#paint0_linear_576_6001)"/>
</g>
<defs>
<linearGradient id="paint0_linear_576_6001" x1="-9.02668e-06" y1="-8.49999" x2="95" y2="114" gradientUnits="userSpaceOnUse">
<stop stop-color="#904A27"/>
<stop offset="0.546875" stop-color="#FBA76B"/>
<stop offset="1" stop-color="#904A27"/>
</linearGradient>
<clipPath id="clip0_576_6001">
<rect width="57" height="76" fill="white"/>
</clipPath>
</defs>
</svg>
