<svg width="20" height="20" viewBox="0 0 20 20" fill="none" xmlns="http://www.w3.org/2000/svg">
<rect width="20" height="20" rx="4" fill="#D93025"/>
<path d="M17 14.2308C17 14.7066 16.6143 15.0923 16.1385 15.0923H3.86154C3.3857 15.0923 3 14.7066 3 14.2308V4.86154C3 4.3857 3.3857 4 3.86154 4L16.1385 4.00862C16.6143 4.00862 17 4.39432 17 4.87015V14.2308Z" fill="white"/>
<path d="M3.86133 4.86133L3.86994 10.6207L7.68656 8.43671C7.76569 8.39154 7.85711 8.37263 7.94767 8.38269C8.03823 8.39276 8.12327 8.43127 8.19056 8.49271L9.32779 9.53087L12.3992 7.24348C12.4809 7.18254 12.5816 7.15256 12.6833 7.15887C12.7851 7.16518 12.8813 7.20738 12.9549 7.27794L16.1253 10.345V4.86133H3.86133ZM6.0841 8.3161C5.30139 8.3161 4.66687 7.68157 4.66687 6.89887C4.66924 6.11713 5.30236 5.48401 6.0841 5.48164C6.86681 5.48164 7.50133 6.11616 7.50133 6.89887C7.50133 7.68157 6.86681 8.3161 6.0841 8.3161Z" fill="#D93025"/>
<path d="M12.6193 8.15234L9.97865 10.121L10.9953 11.0428C11.0375 11.0809 11.0717 11.127 11.0961 11.1783C11.1204 11.2297 11.1344 11.2854 11.1371 11.3422C11.1399 11.399 11.1314 11.4557 11.1121 11.5092C11.0929 11.5627 11.0633 11.6119 11.0249 11.6539C10.9866 11.6959 10.9404 11.7299 10.8889 11.754C10.8374 11.778 10.7816 11.7917 10.7248 11.7942C10.668 11.7966 10.6113 11.7878 10.5579 11.7683C10.5045 11.7488 10.4555 11.7189 10.4137 11.6803L7.82911 9.34127L3.85742 11.6157V14.2305H16.1085V11.5468L12.6193 8.15234Z" fill="#D93025"/>
<path d="M6.08401 7.45465C6.39091 7.45465 6.6397 7.20585 6.6397 6.89895C6.6397 6.59205 6.39091 6.34326 6.08401 6.34326C5.77711 6.34326 5.52832 6.59205 5.52832 6.89895C5.52832 7.20585 5.77711 7.45465 6.08401 7.45465Z" fill="#D93025"/>
</svg>
