<svg width="28" height="28" viewBox="0 0 28 28" fill="none" xmlns="http://www.w3.org/2000/svg">
<path d="M14.2314 23.8232H12.3525C11.8995 23.8232 11.5322 23.456 11.5322 23.0029C11.5322 22.5499 11.8995 22.1826 12.3525 22.1826H13.5809C13.4219 21.6419 13.3103 21.0884 13.2476 20.5283H5.7627C5.30966 20.5283 4.94238 20.161 4.94238 19.708C4.94238 19.255 5.30966 18.8877 5.7627 18.8877H13.1865V17.2334H5.7627C5.30966 17.2334 4.94238 16.8661 4.94238 16.4131C4.94238 15.9601 5.30966 15.5928 5.7627 15.5928H13.3271C13.4517 15.2395 13.6555 14.9194 13.9227 14.657C14.19 14.3945 14.5137 14.1967 14.8692 14.0785L15.2891 13.9385H5.7627C5.30966 13.9385 4.94238 13.5712 4.94238 13.1182C4.94238 12.6651 5.30966 12.2979 5.7627 12.2979H15.6475C16.1005 12.2979 16.4678 12.6651 16.4678 13.1182C16.4678 13.2973 16.4097 13.4625 16.3122 13.5974L19.7627 12.4473V4.11523C19.7627 3.6622 19.3954 3.29492 18.9424 3.29492H15.6406V4.12207C15.6406 5.47903 14.5366 6.58301 13.1797 6.58301H8.23047C6.87351 6.58301 5.76953 5.47903 5.76953 4.12207V3.29492H2.46777C2.01474 3.29492 1.64746 3.6622 1.64746 4.11523V27.1797C1.64746 27.6327 2.01474 28 2.46777 28H18.3338C16.5677 27.0649 15.1346 25.6058 14.2314 23.8232ZM5.7627 22.1826H9.05762C9.51065 22.1826 9.87793 22.5499 9.87793 23.0029C9.87793 23.456 9.51065 23.8232 9.05762 23.8232H5.7627C5.30966 23.8232 4.94238 23.456 4.94238 23.0029C4.94238 22.5499 5.30966 22.1826 5.7627 22.1826ZM15.6475 9.00293C16.1005 9.00293 16.4678 9.37021 16.4678 9.82324C16.4678 10.2763 16.1005 10.6436 15.6475 10.6436H5.7627C5.30966 10.6436 4.94238 10.2763 4.94238 9.82324C4.94238 9.37021 5.30966 9.00293 5.7627 9.00293H15.6475Z" fill="#FBA76B"/>
<path d="M7.41016 4.12207C7.41016 4.5751 7.77744 4.94238 8.23047 4.94238H13.1797C13.6327 4.94238 14 4.5751 14 4.12207V2.46777C14 2.01474 13.6327 1.64746 13.1797 1.64746H12.3525C12.3525 0.73757 11.615 0 10.7051 0C9.79519 0 9.05762 0.73757 9.05762 1.64746H8.23047C7.77744 1.64746 7.41016 2.01474 7.41016 2.46777V4.12207ZM25.7917 15.6349L20.8493 13.9874C20.6809 13.9314 20.4989 13.9314 20.3305 13.9874L15.3881 15.6349C15.2248 15.6893 15.0827 15.7938 14.982 15.9335C14.8814 16.0731 14.8272 16.2409 14.8272 16.4131V19.4406C14.8256 21.1302 15.3565 22.7774 16.3445 24.148C17.3324 25.5187 18.7271 26.5432 20.3305 27.0761C20.4989 27.1322 20.6809 27.1322 20.8493 27.0761C22.4527 26.5432 23.8474 25.5187 24.8353 24.148C25.8233 22.7774 26.3542 21.1302 26.3526 19.4406V16.4131C26.3526 16.2409 26.2984 16.0731 26.1977 15.9335C26.0971 15.7938 25.955 15.6893 25.7917 15.6349ZM22.9302 20.3337L19.9747 22.1315C19.8465 22.2097 19.6992 22.2511 19.549 22.251C19.4204 22.2512 19.2936 22.221 19.1788 22.1631C19.064 22.1052 18.9644 22.021 18.8882 21.9175L18.0155 20.7341C17.7466 20.3695 17.8243 19.8558 18.1889 19.587C18.5536 19.3181 19.0671 19.3957 19.336 19.7603L19.7632 20.3398L22.0776 18.932C22.4646 18.6966 22.9692 18.8194 23.2047 19.2065C23.4402 19.5936 23.3173 20.0982 22.9302 20.3337Z" fill="#FBA76B"/>
</svg>
