<svg width="28" height="28" viewBox="0 0 28 28" fill="none" xmlns="http://www.w3.org/2000/svg">
<g clip-path="url(#clip0_577_6101)">
<path d="M23.13 26.1739H22.2169V21.3043C22.2169 18.1237 20.3971 15.3652 17.7471 14C20.4243 12.6208 22.2169 9.85119 22.2169 6.69566V1.82607H23.13C23.634 1.82607 24.043 1.41739 24.043 0.913008C24.043 0.40868 23.634 0 23.13 0H4.86912C4.36506 0 3.95605 0.40868 3.95605 0.913062C3.95605 1.41745 4.36506 1.82612 4.86912 1.82612H5.78218V6.69572C5.78218 9.85075 7.57434 12.6206 10.252 14.0001C7.60191 15.3653 5.78218 18.1238 5.78218 21.3044V26.174H4.86912C4.36506 26.174 3.95605 26.5827 3.95605 27.087C3.95605 27.5914 4.36506 28.0001 4.86912 28.0001H23.13C23.634 28.0001 24.043 27.5914 24.043 27.087C24.043 26.5826 23.634 26.1739 23.13 26.1739ZM7.63614 7.2467C7.59146 6.72667 7.6082 6.94832 7.6082 1.82607H20.3909C20.3909 6.94832 20.4076 6.72667 20.3629 7.2467H7.63614ZM20.3909 25.1377C15.3539 20.9402 15.5375 21.0158 14.9126 20.795V19.7826C14.9126 19.2782 14.5036 18.8695 13.9995 18.8695C13.4955 18.8695 13.0865 19.2782 13.0865 19.7826V20.7949C12.4681 21.0135 12.6616 20.9263 7.6082 25.1377V21.3043C7.6082 18.091 9.99421 15.4314 13.0865 14.986V16.1304C13.0865 16.6348 13.4955 17.0435 13.9995 17.0435C14.5036 17.0435 14.9126 16.6348 14.9126 16.1304V14.986C18.0048 15.4314 20.3909 18.091 20.3909 21.3043V25.1377Z" fill="#FBA76B"/>
</g>
<defs>
<clipPath id="clip0_577_6101">
<rect width="28" height="28" fill="white"/>
</clipPath>
</defs>
</svg>
