<svg width="28" height="28" viewBox="0 0 28 28" fill="none" xmlns="http://www.w3.org/2000/svg">
<g clip-path="url(#clip0_577_6090)">
<path d="M27.4279 24.6146L25.6024 22.7892C25.2458 22.4326 24.6679 22.4326 24.3113 22.7892C23.9547 23.1455 23.9547 23.7239 24.3113 24.0803L24.5788 24.3478H7.07408L7.34162 24.0803C7.69823 23.7239 7.69823 23.1456 7.34162 22.7892C6.985 22.4326 6.40717 22.4326 6.0505 22.7892L4.22504 24.6146C4.04593 24.7934 3.9569 25.0374 3.9569 25.2608C3.9569 25.4891 4.05064 25.7329 4.22504 25.907L6.0505 27.7325C6.40717 28.0891 6.98489 28.0891 7.34162 27.7325C7.69823 27.3761 7.69823 26.7978 7.34162 26.4414L7.07408 26.1738H24.5788L24.3113 26.4414C23.9547 26.7977 23.9547 27.3761 24.3113 27.7325C24.6679 28.0891 25.2457 28.0891 25.6024 27.7325L27.4279 25.907C27.6067 25.7286 27.696 25.4848 27.696 25.2608C27.696 25.0265 27.6024 24.7887 27.4279 24.6146ZM4.22443 19.137L3.9569 19.4045V3.11718L4.22443 3.38471C4.58111 3.74138 5.15882 3.74138 5.51555 3.38471C5.87222 3.02804 5.87222 2.45032 5.51555 2.0936L3.68943 0.267531C3.33281 -0.0890857 2.75498 -0.0890857 2.39831 0.267531L0.572246 2.0936C0.215574 2.45027 0.215574 3.02799 0.572246 3.38471C0.928862 3.74133 1.50669 3.74133 1.86336 3.38471L2.13084 3.11718V19.4045L1.86331 19.137C1.50669 18.7804 0.928862 18.7804 0.572191 19.137C0.21552 19.4936 0.21552 20.0714 0.572191 20.4281L2.39826 22.2542C2.75493 22.6108 3.33265 22.6108 3.68937 22.2542L5.51544 20.4281C5.87211 20.0715 5.87211 19.4937 5.51549 19.137C5.15888 18.7804 4.58105 18.7804 4.22443 19.137ZM23.1308 7.30432H27.696V0.913061C27.696 0.408679 27.287 0 26.7829 0H14.3047V7.30432H18.8699C19.3739 7.30432 19.7829 7.713 19.7829 8.21738C19.7829 8.72176 19.3739 9.13044 18.8699 9.13044H14.3047V11.8696C14.3047 12.374 13.8957 12.7826 13.3916 12.7826C12.8876 12.7826 12.4786 12.374 12.4786 11.8696V0H8.52204C8.01799 0 7.60898 0.408679 7.60898 0.913061V19.7826C7.60898 20.2869 8.01799 20.6956 8.52204 20.6956H12.4786V16.1304C12.4786 15.626 12.8876 15.2174 13.3916 15.2174C13.8957 15.2174 14.3047 15.626 14.3047 16.1304V20.6956H26.7829C27.287 20.6956 27.696 20.2869 27.696 19.7826V9.13044H23.1308C22.6267 9.13044 22.2177 8.72176 22.2177 8.21738C22.2177 7.713 22.6267 7.30432 23.1308 7.30432Z" fill="#FBA76B"/>
</g>
<defs>
<clipPath id="clip0_577_6090">
<rect width="28" height="28" fill="white"/>
</clipPath>
</defs>
</svg>
