<svg width="28" height="28" viewBox="0 0 28 28" fill="none" xmlns="http://www.w3.org/2000/svg">
<g clip-path="url(#clip0_577_6095)">
<path d="M5.72922 9.40073H0.855247C0.403417 9.40073 0.0371094 9.76704 0.0371094 10.2189V23.1761C0.0371094 23.6279 0.403417 23.9942 0.855247 23.9942H5.72922C6.18105 23.9942 6.54736 23.6279 6.54736 23.1761V10.2189C6.54736 9.76704 6.18105 9.40073 5.72922 9.40073ZM13.8929 6.50583C14.0189 7.0428 14.2436 7.55588 14.5735 7.9985C15.1839 8.82705 16.1856 9.32181 17.2531 9.32208L23.7287 9.32432C23.8605 9.16916 23.9845 9.00751 24.1001 8.83998C24.7718 7.86541 25.1268 6.72395 25.1268 5.5389C25.1268 4.6191 24.5836 2.88743 23.9766 2.076C23.2491 1.10361 22.2131 0.370725 21.0593 0.0122721C21.0126 -0.00219728 20.9629 -0.00388887 20.9154 0.00737362C20.8679 0.0186361 20.8243 0.0424404 20.7891 0.076305C20.7334 0.129429 20.7057 0.20568 20.6511 0.337182V3.76911C20.6511 4.22094 20.2848 4.58724 19.833 4.58724H18.7392C18.2874 4.58724 17.9211 4.22094 17.9211 3.76911V0.336909C17.9211 0.336909 17.9288 0.125993 17.892 0.0760323C17.8493 0.0181081 17.7733 0 17.7029 0C17.6755 0 17.6482 0.00414523 17.622 0.0122721C16.4682 0.370725 15.4321 1.10361 14.7046 2.07594C13.9065 3.14274 13.6187 4.01526 13.5645 5.11489L13.8929 6.50583ZM20.8665 25.8549H16.446C16.8092 27.0931 17.9548 28.0001 19.3088 28.0001C20.7147 28.0001 21.8957 27.0225 22.2098 25.7116C21.7684 25.8067 21.3181 25.8548 20.8665 25.8549Z" fill="#FBA76B"/>
<path d="M27.4626 12.3361C26.8978 11.4753 25.946 10.9613 24.9163 10.9613L17.2527 10.9585C15.0257 10.9964 13.0364 9.42033 12.4081 7.31543C11.9693 7.48473 11.5631 7.72889 11.2077 8.03703C10.475 8.67278 9.99206 9.5466 9.84779 10.4977L9.77744 10.9613H8.18359V22.3226H10.2814L10.4436 22.5001C11.4565 23.6084 12.9549 24.2188 14.6625 24.2188H20.8664C21.8283 24.2188 22.7555 23.9306 23.5479 23.3853C24.3379 22.8418 24.9374 22.0813 25.2815 21.1863L27.7134 15.2117C28.1194 14.2691 28.0256 13.1941 27.4626 12.3361Z" fill="#FBA76B"/>
</g>
<defs>
<clipPath id="clip0_577_6095">
<rect width="28" height="28" fill="white"/>
</clipPath>
</defs>
</svg>
