<svg width="30" height="31" viewBox="0 0 30 31" fill="none" xmlns="http://www.w3.org/2000/svg">
<path d="M28.35 20.8105C26.3 20.8105 24.3167 20.4772 22.4667 19.8772C21.8833 19.6772 21.2333 19.8272 20.7833 20.2772L18.1667 23.5605C13.45 21.3105 9.03333 17.0605 6.68333 12.1772L9.93333 9.41049C10.3833 8.94382 10.5167 8.29382 10.3333 7.71049C9.71667 5.86049 9.4 3.87715 9.4 1.82715C9.4 0.927154 8.65 0.177155 7.75 0.177155H1.98333C1.08333 0.177155 0 0.577155 0 1.82715C0 17.3105 12.8833 30.1772 28.35 30.1772C29.5333 30.1772 30 29.1272 30 28.2105V22.4605C30 21.5605 29.25 20.8105 28.35 20.8105Z" fill="url(#paint0_linear_902_80)"/>
<defs>
<linearGradient id="paint0_linear_902_80" x1="8.4981e-05" y1="15.1772" x2="29.9996" y2="15.1772" gradientUnits="userSpaceOnUse">
<stop stop-color="#FBA76B"/>
<stop offset="1" stop-color="#904A27"/>
</linearGradient>
</defs>
</svg>
