<svg width="58" height="41" viewBox="0 0 58 41" fill="none" xmlns="http://www.w3.org/2000/svg">
<g clip-path="url(#clip0_704_297)">
<path d="M56.8105 6.4159C56.1422 3.9113 54.1824 1.93278 51.7016 1.25802C47.159 0 29 0 29 0C29 0 10.841 0 6.30977 1.20084C3.87422 1.87559 1.86914 3.89986 1.20078 6.40446C0 11.002 0 20.4943 0 20.4943C0 20.4943 0 30.0438 1.18945 34.5727C1.85781 37.0773 3.81758 39.0558 6.29844 39.7305C10.8863 40.9886 28.9887 40.9886 28.9887 40.9886C28.9887 40.9886 47.1477 40.9886 51.6789 39.7877C54.1598 39.113 56.1195 37.1344 56.7879 34.6298C58 30.0438 58 20.5515 58 20.5515C58 20.5515 58.0453 11.002 56.8105 6.4159Z" fill="#FF0000"/>
<path d="M23.2227 29.2777L38.323 20.4945L23.2227 11.7227V29.2777Z" fill="white"/>
</g>
<defs>
<clipPath id="clip0_704_297">
<rect width="58" height="41" fill="white"/>
</clipPath>
</defs>
</svg>
