<svg width="42" height="42" viewBox="0 0 42 42" fill="none" xmlns="http://www.w3.org/2000/svg">
<rect width="42" height="42" rx="4" fill="url(#paint0_linear_683_541)"/>
<g clip-path="url(#clip0_683_541)">
<path d="M34.7991 29.2857C34.8225 29.2857 34.8456 29.2811 34.8672 29.2722C34.8888 29.2633 34.9084 29.2502 34.9249 29.2336C34.9414 29.2171 34.9545 29.1975 34.9635 29.1759C34.9724 29.1543 34.977 29.1312 34.977 29.1078V28.6157C34.977 28.5685 34.9583 28.5233 34.9249 28.4899C34.8915 28.4565 34.8463 28.4378 34.7991 28.4378C34.7519 28.4378 34.7067 28.4565 34.6733 28.4899C34.64 28.5233 34.6212 28.5685 34.6212 28.6157V29.1078C34.6212 29.1312 34.6258 29.1543 34.6347 29.1759C34.6437 29.1975 34.6568 29.2171 34.6733 29.2336C34.6898 29.2502 34.7094 29.2633 34.731 29.2722C34.7526 29.2811 34.7757 29.2857 34.7991 29.2857ZM34.6212 32.7458C34.6212 32.793 34.64 32.8382 34.6733 32.8716C34.7067 32.905 34.7519 32.9237 34.7991 32.9237C34.8463 32.9237 34.8915 32.905 34.9249 32.8716C34.9583 32.8382 34.977 32.793 34.977 32.7458V30.0478C34.977 30.0006 34.9583 29.9554 34.9249 29.922C34.8915 29.8886 34.8463 29.8699 34.7991 29.8699C34.7519 29.8699 34.7067 29.8886 34.6733 29.922C34.64 29.9554 34.6212 30.0006 34.6212 30.0478V32.7458ZM34.2555 19.2281H7.74384C7.34248 19.2281 7.0166 19.554 7.0166 19.9553V20.5474C7.0166 20.9488 7.34254 21.2747 7.74384 21.2747H34.2554C34.6568 21.2747 34.9826 20.9488 34.9826 20.5474V19.9553C34.9827 19.554 34.6568 19.2281 34.2555 19.2281ZM13.628 31.6199C13.7073 31.699 13.8146 31.7436 13.9266 31.744H28.0726C28.1846 31.7435 28.2919 31.6989 28.3713 31.6199L29.3674 30.6238C29.4464 30.5444 29.491 30.4372 29.4914 30.3252V25.5733C29.491 25.4613 29.4464 25.354 29.3673 25.2746L28.3713 24.2785C28.2919 24.1994 28.1846 24.1549 28.0726 24.1545H13.9266C13.8146 24.1549 13.7074 24.1995 13.628 24.2785L12.6319 25.2746C12.5529 25.354 12.5083 25.4613 12.5078 25.5733V30.3252C12.5078 30.4361 12.553 30.545 12.6319 30.6238L13.628 31.6199ZM15.1181 26.1917H26.8812C26.9284 26.1917 26.9737 26.2104 27.007 26.2438C27.0404 26.2771 27.0591 26.3224 27.0591 26.3696C27.0591 26.4167 27.0404 26.462 27.007 26.4954C26.9737 26.5287 26.9284 26.5475 26.8812 26.5475H15.1181C15.0709 26.5475 15.0256 26.5287 14.9923 26.4954C14.9589 26.462 14.9402 26.4167 14.9402 26.3696C14.9402 26.3224 14.9589 26.2771 14.9923 26.2438C15.0256 26.2104 15.0709 26.1917 15.1181 26.1917ZM15.1181 29.3509H26.8812C26.9284 29.3509 26.9737 29.3697 27.007 29.403C27.0404 29.4364 27.0591 29.4816 27.0591 29.5288C27.0591 29.576 27.0404 29.6212 27.007 29.6546C26.9737 29.688 26.9284 29.7067 26.8812 29.7067H15.1181C15.0709 29.7067 15.0256 29.688 14.9923 29.6546C14.9589 29.6212 14.9402 29.576 14.9402 29.5288C14.9402 29.4816 14.9589 29.4364 14.9923 29.403C15.0256 29.3697 15.0709 29.3509 15.1181 29.3509ZM25.8115 16.9467H27.5165V17.6569H27.2404C26.59 17.6569 26.0606 18.1863 26.0606 18.8367C26.0606 18.8495 26.062 18.8609 26.0649 18.8723H30.511C30.5138 18.8609 30.5152 18.8495 30.5152 18.8367C30.5152 18.1863 29.9858 17.6569 29.3354 17.6569H29.1134V16.9467H30.8184C31.1149 16.9467 31.3436 16.6793 31.2894 16.3873C31.1073 15.3883 30.2348 14.6638 29.2186 14.6638H27.4112C26.849 14.6638 26.3196 14.883 25.9226 15.2801C25.6196 15.5808 25.4164 15.9673 25.3405 16.3873C25.286 16.6807 25.514 16.9467 25.8115 16.9467ZM27.8723 16.9467H28.7576V17.6569H27.8723V16.9467ZM27.6745 13.8256H28.1371V14.308H28.4929V13.8256H28.9554C29.0018 13.8244 29.046 13.8052 29.0784 13.7719C29.1108 13.7387 29.129 13.6941 29.129 13.6477C29.129 13.6012 29.1108 13.5566 29.0784 13.5234C29.046 13.4902 29.0018 13.4709 28.9554 13.4698H27.6745C27.6281 13.4709 27.584 13.4902 27.5516 13.5234C27.5191 13.5566 27.501 13.6012 27.501 13.6477C27.501 13.6941 27.5191 13.7387 27.5516 13.7719C27.584 13.8052 27.6281 13.8244 27.6745 13.8256ZM11.016 9.62808C11.1084 9.47785 11.1974 9.34666 11.2877 9.22711C11.3018 9.20848 11.3121 9.18725 11.318 9.16464C11.3239 9.14203 11.3252 9.11848 11.322 9.09533C11.3188 9.07219 11.3111 9.04991 11.2992 9.02976C11.2874 9.00961 11.2717 8.99199 11.2531 8.9779C11.2345 8.96379 11.2132 8.95349 11.1906 8.94759C11.168 8.94169 11.1444 8.94031 11.1213 8.94352C11.0981 8.94674 11.0759 8.95449 11.0557 8.96633C11.0356 8.97817 11.0179 8.99386 11.0039 9.01252C10.9054 9.14273 10.8091 9.28492 10.7094 9.44728C10.6621 9.52467 10.679 9.63043 10.7579 9.68632C10.7783 9.70072 10.8015 9.71068 10.8259 9.71555C10.8504 9.72043 10.8756 9.72011 10.8999 9.71462C10.9242 9.70913 10.9471 9.69859 10.9671 9.68368C10.9871 9.66877 11.0038 9.64983 11.016 9.62808ZM11.9007 8.55451C12.5826 7.93353 13.4214 7.52518 14.3267 7.37381C14.3497 7.36998 14.3718 7.36164 14.3916 7.34927C14.4114 7.3369 14.4286 7.32075 14.4422 7.30173C14.4558 7.28271 14.4655 7.26121 14.4707 7.23844C14.476 7.21568 14.4767 7.1921 14.4728 7.16906C14.469 7.146 14.4606 7.12393 14.4483 7.10411C14.4359 7.08428 14.4197 7.06709 14.4007 7.05352C14.3817 7.03995 14.3602 7.03027 14.3374 7.02503C14.3146 7.01979 14.291 7.0191 14.268 7.02299C13.2952 7.18557 12.3937 7.62422 11.6611 8.29152C11.6438 8.30725 11.6298 8.32624 11.6199 8.34738C11.61 8.36853 11.6043 8.39142 11.6032 8.41476C11.6021 8.4381 11.6057 8.46142 11.6136 8.48339C11.6215 8.50537 11.6337 8.52557 11.6494 8.54284C11.6652 8.5601 11.6841 8.5741 11.7053 8.58404C11.7264 8.59397 11.7493 8.59964 11.7727 8.60072C11.796 8.60181 11.8193 8.59828 11.8413 8.59035C11.8633 8.58243 11.8835 8.57025 11.9007 8.55451ZM11.1183 12.0978C11.1183 14.3034 12.9127 16.0978 15.1183 16.0978C17.3239 16.0978 19.1183 14.3034 19.1183 12.0978C19.1183 9.89228 17.3239 8.09782 15.1183 8.09782C12.9127 8.09782 11.1183 9.89228 11.1183 12.0978ZM14.9404 8.45815V9.1926C14.9404 9.23979 14.9592 9.28504 14.9925 9.3184C15.0259 9.35176 15.0712 9.3705 15.1183 9.3705C15.1655 9.3705 15.2108 9.35176 15.2441 9.3184C15.2775 9.28504 15.2962 9.23979 15.2962 9.1926V8.45815C17.1644 8.54844 18.6677 10.0518 18.758 11.9199H18.0234C17.9762 11.9199 17.931 11.9387 17.8976 11.972C17.8642 12.0054 17.8455 12.0506 17.8455 12.0978C17.8455 12.145 17.8642 12.1903 17.8976 12.2236C17.931 12.257 17.9762 12.2757 18.0234 12.2757H18.758C18.6677 14.1439 17.1644 15.6472 15.2962 15.7375V15.0029C15.2962 14.9557 15.2775 14.9104 15.2441 14.8771C15.2108 14.8437 15.1655 14.825 15.1183 14.825C15.0712 14.825 15.0259 14.8437 14.9925 14.8771C14.9592 14.9104 14.9404 14.9557 14.9404 15.0029V15.7375C13.0723 15.6473 11.5689 14.1439 11.4787 12.2757H12.2132C12.2604 12.2757 12.3057 12.257 12.339 12.2236C12.3724 12.1903 12.3911 12.145 12.3911 12.0978C12.3911 12.0506 12.3724 12.0054 12.339 11.972C12.3057 11.9387 12.2604 11.9199 12.2132 11.9199H11.4787C11.5689 10.0517 13.0723 8.54839 14.9404 8.45815Z" fill="#262626"/>
<path d="M15.1189 12.5831C15.3552 12.5831 15.5573 12.4294 15.6313 12.2159H16.6973C16.7437 12.2148 16.7878 12.1955 16.8202 12.1623C16.8527 12.129 16.8708 12.0845 16.8708 12.038C16.8708 11.9916 16.8527 11.947 16.8202 11.9138C16.7878 11.8805 16.7437 11.8613 16.6973 11.8601H15.6313C15.6046 11.7823 15.5606 11.7116 15.5027 11.6532C15.4447 11.5948 15.3744 11.5502 15.2968 11.5228V10.1579C15.2957 10.1115 15.2764 10.0674 15.2432 10.0349C15.21 10.0025 15.1654 9.98438 15.1189 9.98438C15.0725 9.98438 15.0279 10.0025 14.9947 10.0349C14.9614 10.0674 14.9422 10.1115 14.941 10.1579V11.5228C14.8338 11.5597 14.7408 11.6292 14.675 11.7216C14.6092 11.8139 14.5738 11.9245 14.5739 12.038C14.5739 12.3383 14.8172 12.5831 15.1189 12.5831ZM34.8048 34.6236H33.8327V21.6304H8.16657V34.6236H7.1945C7.14732 34.6236 7.10207 34.6423 7.06871 34.6757C7.03534 34.709 7.0166 34.7543 7.0166 34.8015C7.0166 34.8487 7.03534 34.8939 7.06871 34.9273C7.10207 34.9606 7.14732 34.9794 7.1945 34.9794H34.8048C34.852 34.9794 34.8972 34.9606 34.9306 34.9273C34.964 34.8939 34.9827 34.8487 34.9827 34.8015C34.9827 34.7543 34.964 34.709 34.9306 34.6757C34.8972 34.6423 34.852 34.6236 34.8048 34.6236ZM12.152 25.5733C12.152 25.3687 12.2352 25.1682 12.3802 25.023L13.3764 24.0269C13.5226 23.8814 13.7203 23.7993 13.9266 23.7987H28.0726C28.2774 23.7987 28.4779 23.8818 28.6229 24.0269L29.619 25.023C29.7645 25.1693 29.8465 25.367 29.8472 25.5733V30.3252C29.8466 30.5315 29.7645 30.7291 29.619 30.8753L28.6229 31.8714C28.4767 32.017 28.2789 32.0991 28.0726 32.0998H13.9266C13.7219 32.0998 13.5214 32.0166 13.3763 31.8714L12.3803 30.8753C12.2347 30.7291 12.1527 30.5315 12.152 30.3252V25.5733Z" fill="#262626"/>
</g>
<defs>
<linearGradient id="paint0_linear_683_541" x1="0" y1="0" x2="56.6615" y2="26.056" gradientUnits="userSpaceOnUse">
<stop stop-color="#904A27"/>
<stop offset="0.484375" stop-color="#FBA76B"/>
<stop offset="1" stop-color="#904A27"/>
</linearGradient>
<clipPath id="clip0_683_541">
<rect width="28" height="28" fill="white" transform="translate(7 7)"/>
</clipPath>
</defs>
</svg>
