<svg width="42" height="42" viewBox="0 0 42 42" fill="none" xmlns="http://www.w3.org/2000/svg">
<rect width="42" height="42" rx="4" fill="url(#paint0_linear_683_553)"/>
<path d="M9.98374 32.9223C9.98374 33.4703 10.4292 33.9157 10.9757 33.9157H11.6546C12.2011 33.9157 12.6466 33.4702 12.6466 32.9223V32.5537H9.98374V32.9223ZM29.3522 32.9223C29.3522 33.4703 29.7977 33.9157 30.3442 33.9157H31.0231C31.5696 33.9157 32.015 33.4702 32.015 32.9223V32.5537H29.3522V32.9223ZM8.05388 16.1848C8.07724 16.1848 8.10038 16.1802 8.12196 16.1713C8.14355 16.1623 8.16316 16.1492 8.17968 16.1327C8.19621 16.1162 8.20931 16.0966 8.21825 16.075C8.22718 16.0534 8.23178 16.0303 8.23177 16.0069V15.5145C8.23177 15.4673 8.21303 15.4221 8.17967 15.3887C8.14631 15.3553 8.10106 15.3366 8.05388 15.3366C8.00669 15.3366 7.96144 15.3553 7.92808 15.3887C7.89472 15.4221 7.87598 15.4673 7.87598 15.5145V16.0069C7.87597 16.0303 7.88057 16.0534 7.8895 16.075C7.89844 16.0966 7.91155 16.1162 7.92807 16.1327C7.94459 16.1492 7.9642 16.1623 7.98579 16.1713C8.00737 16.1802 8.03051 16.1848 8.05388 16.1848ZM8.05388 14.7559C8.07724 14.7559 8.10038 14.7513 8.12196 14.7423C8.14355 14.7334 8.16316 14.7203 8.17968 14.7038C8.19621 14.6872 8.20931 14.6676 8.21825 14.646C8.22718 14.6245 8.23178 14.6013 8.23177 14.578V11.8909C8.23177 11.8438 8.21303 11.7985 8.17967 11.7651C8.14631 11.7318 8.10106 11.713 8.05388 11.713C8.00669 11.713 7.96144 11.7318 7.92808 11.7651C7.89472 11.7985 7.87598 11.8438 7.87598 11.8909V14.578C7.87597 14.6013 7.88057 14.6245 7.8895 14.646C7.89844 14.6676 7.91155 14.6872 7.92807 14.7038C7.94459 14.7203 7.9642 14.7334 7.98579 14.7423C8.00737 14.7513 8.03051 14.7559 8.05388 14.7559ZM10.627 11.0888V11.0205C10.355 11.181 10.0449 11.2655 9.72901 11.2653C9.47427 11.2653 9.23228 11.2112 9.01457 11.113V22.0248C9.09453 22.0174 9.17478 22.0136 9.25509 22.0134H11.1736V20.3881C11.1736 19.2552 12.0944 18.3344 13.2258 18.3344H17.7901C18.9229 18.3344 19.8437 19.2552 19.8437 20.3881V22.0134H22.155V20.3881C22.155 19.2552 23.0759 18.3344 24.2087 18.3344H28.7729C29.9044 18.3344 30.8252 19.2552 30.8252 20.3881V22.0134H32.7437C32.8462 22.0134 32.9458 22.0191 33.0454 22.0304V11.1144C32.821 11.2143 32.578 11.2657 32.3324 11.2653C32.0159 11.2659 31.705 11.1808 31.4329 11.0191V11.1173C31.4329 11.439 31.2123 11.7165 30.8978 11.7934C24.5304 13.3447 17.8897 13.3347 11.1579 11.7635C10.8462 11.6908 10.627 11.4133 10.627 11.0888ZM9.72895 10.9095C10.5074 10.9095 11.1408 10.2762 11.1408 9.49771C11.1408 8.71923 10.5074 8.08447 9.72895 8.08447C8.95048 8.08447 8.31714 8.71923 8.31714 9.49771C8.31714 10.2762 8.95048 10.9095 9.72895 10.9095ZM32.3324 10.9095C33.1109 10.9095 33.7443 10.2762 33.7443 9.49771C33.7443 8.71923 33.1109 8.08447 32.3324 8.08447C31.554 8.08447 30.9206 8.71923 30.9206 9.49771C30.9206 10.2762 31.5539 10.9095 32.3324 10.9095Z" fill="#262626"/>
<path d="M28.7732 18.6899H24.209C23.2725 18.6899 22.5111 19.4514 22.5111 20.3878V22.0131H30.4697V20.3878C30.4697 19.4514 29.7083 18.6899 28.7732 18.6899ZM17.7903 18.6899H13.2261C12.291 18.6899 11.5296 19.4514 11.5296 20.3878V22.0131H19.4883V20.3878C19.4882 19.4514 18.7268 18.6899 17.7903 18.6899ZM22.5694 32.9813H22.0784C22.0312 32.9813 21.986 33 21.9526 33.0334C21.9193 33.0667 21.9005 33.112 21.9005 33.1592C21.9005 33.2063 21.9193 33.2516 21.9526 33.285C21.986 33.3183 22.0312 33.3371 22.0784 33.3371H22.5694C22.6166 33.3371 22.6618 33.3183 22.6952 33.285C22.7286 33.2516 22.7473 33.2063 22.7473 33.1592C22.7473 33.112 22.7286 33.0667 22.6952 33.0334C22.6618 33 22.6166 32.9813 22.5694 32.9813ZM21.1419 32.9813H18.4549C18.4077 32.9813 18.3625 33 18.3291 33.0334C18.2958 33.0667 18.277 33.112 18.277 33.1592C18.277 33.2063 18.2958 33.2516 18.3291 33.285C18.3625 33.3183 18.4077 33.3371 18.4549 33.3371H21.1419C21.1891 33.3371 21.2344 33.3183 21.2677 33.285C21.3011 33.2516 21.3198 33.2063 21.3198 33.1592C21.3198 33.112 21.3011 33.0667 21.2677 33.0334C21.2344 33 21.1891 32.9813 21.1419 32.9813ZM7.0166 29.959C7.0166 31.1943 8.02137 32.1976 9.25529 32.1976H32.744C33.9779 32.1976 34.9826 31.1943 34.9826 29.959V26.1239H7.0166V29.959ZM32.744 22.3689H9.25529C8.02137 22.3689 7.0166 23.3723 7.0166 24.6062V25.7681H34.9827V24.6062C34.9827 23.3723 33.9779 22.3689 32.744 22.3689Z" fill="#262626"/>
<defs>
<linearGradient id="paint0_linear_683_553" x1="0" y1="0" x2="56.6615" y2="26.056" gradientUnits="userSpaceOnUse">
<stop stop-color="#904A27"/>
<stop offset="0.484375" stop-color="#FBA76B"/>
<stop offset="1" stop-color="#904A27"/>
</linearGradient>
</defs>
</svg>
