<svg width="42" height="42" viewBox="0 0 42 42" fill="none" xmlns="http://www.w3.org/2000/svg">
<rect width="42" height="42" rx="4" fill="url(#paint0_linear_683_528)"/>
<path d="M8.0186 13.9959C8.04196 13.9959 8.0651 13.9913 8.08669 13.9824C8.10827 13.9735 8.12789 13.9603 8.14441 13.9438C8.16093 13.9273 8.17403 13.9077 8.18297 13.8861C8.19191 13.8645 8.1965 13.8414 8.1965 13.818C8.1989 13.7613 8.18097 13.5101 8.25496 13.173C8.26081 13.1469 8.26073 13.1199 8.25472 13.0939C8.2487 13.0679 8.23692 13.0436 8.22023 13.0228C8.20354 13.002 8.18238 12.9852 8.15831 12.9737C8.13425 12.9622 8.1079 12.9562 8.08122 12.9563C8.03991 12.9564 7.99993 12.9708 7.9681 12.9971C7.93626 13.0234 7.91454 13.06 7.90665 13.1005C7.82364 13.4805 7.84343 13.7543 7.8407 13.818C7.84069 13.8414 7.84529 13.8645 7.85423 13.8861C7.86316 13.9077 7.87627 13.9273 7.89279 13.9438C7.90931 13.9603 7.92892 13.9735 7.95051 13.9824C7.9721 13.9913 7.99523 13.9959 8.0186 13.9959ZM8.63925 12.2792C8.76239 12.0991 8.90779 11.9353 9.07199 11.7917C9.59983 11.3313 10.3186 11.1284 11.0459 11.2578C11.0921 11.2654 11.1394 11.2545 11.1776 11.2274C11.2158 11.2004 11.2418 11.1594 11.25 11.1133C11.2582 11.0672 11.2479 11.0198 11.2214 10.9813C11.1948 10.9427 11.1542 10.9162 11.1082 10.9074C10.275 10.7596 9.44649 10.993 8.83825 11.5234C8.65148 11.6868 8.48606 11.8731 8.3459 12.0778C8.31921 12.1167 8.30906 12.1646 8.31769 12.211C8.32631 12.2574 8.353 12.2985 8.3919 12.3252C8.43081 12.3519 8.47872 12.362 8.5251 12.3534C8.57148 12.3447 8.61254 12.3181 8.63925 12.2792ZM22.9211 29.5245H22.43C22.3828 29.5245 22.3376 29.5433 22.3042 29.5766C22.2709 29.61 22.2521 29.6553 22.2521 29.7024C22.2521 29.7496 22.2709 29.7949 22.3042 29.8282C22.3376 29.8616 22.3828 29.8803 22.43 29.8803H22.9211C22.9682 29.8803 23.0135 29.8616 23.0468 29.8282C23.0802 29.7949 23.099 29.7496 23.099 29.7024C23.099 29.6553 23.0802 29.61 23.0468 29.5766C23.0135 29.5433 22.9682 29.5245 22.9211 29.5245ZM21.4935 29.5245H18.8065C18.7593 29.5245 18.7141 29.5433 18.6807 29.5766C18.6474 29.61 18.6286 29.6553 18.6286 29.7024C18.6286 29.7496 18.6474 29.7949 18.6807 29.8282C18.7141 29.8616 18.7593 29.8803 18.8065 29.8803H21.4935C21.5407 29.8803 21.586 29.8616 21.6193 29.8282C21.6527 29.7949 21.6714 29.7496 21.6714 29.7024C21.6714 29.6553 21.6527 29.61 21.6193 29.5766C21.586 29.5433 21.5407 29.5245 21.4935 29.5245ZM32.949 16.8327C31.7497 16.7746 30.716 17.7298 30.716 18.9632V25.6538C30.716 25.9939 30.4399 26.27 30.1011 26.27H11.8983C11.5596 26.27 11.2834 25.9939 11.2834 25.6538V18.9632C11.2834 17.7412 10.2649 16.7769 9.05044 16.8326C7.9375 16.8824 7.0252 17.8317 7.01667 18.9461C7.00956 19.8412 7.56885 20.6525 8.40857 20.9628C8.64909 21.051 8.80993 21.283 8.80993 21.5392V26.9773C8.80993 27.9493 9.60268 28.742 10.5761 28.742H31.4233C32.3968 28.742 33.1895 27.9493 33.1895 26.9773V21.5392C33.1895 21.283 33.3503 21.051 33.5909 20.9628C34.4305 20.6525 34.9899 19.8413 34.9828 18.9461C34.9742 17.8318 34.0619 16.8825 32.949 16.8327ZM29.5048 29.0979H26.7381L28.0887 30.7744C28.1796 30.8874 28.2947 30.9785 28.4255 31.0411C28.5563 31.1037 28.6994 31.1361 28.8444 31.1359H29.9247C30.2663 31.1359 30.4796 30.7682 30.3061 30.4699L29.5048 29.0979ZM11.3461 30.4699C11.1724 30.7684 11.386 31.1359 11.7275 31.1359H12.8077C13.1023 31.1359 13.3785 31.0036 13.5635 30.7744L14.9141 29.0979H12.1473L11.3461 30.4699Z" fill="#262626"/>
<path d="M11.6396 21.9318V25.6535C11.6396 25.7972 11.7564 25.9139 11.8986 25.9139H30.1015C30.2438 25.9139 30.3605 25.7972 30.3605 25.6535V21.9076C27.2935 20.6054 24.1496 20.6851 21.0043 22.1481C18.1238 20.6595 15.054 20.5869 11.6396 21.9318Z" fill="#262626"/>
<path d="M8.97949 13.7145V16.4812C8.99798 16.4784 9.01652 16.4784 9.035 16.477C10.4984 16.4227 11.6395 17.5725 11.6395 18.9633V21.5507C14.8377 20.3234 17.9459 20.228 21.0128 21.7528C24.0902 20.3652 27.2385 20.239 30.3604 21.5236V18.9633C30.3604 17.608 31.4621 16.425 32.9663 16.4769C32.9848 16.4783 33.0019 16.4783 33.0204 16.4812V13.7145C33.0204 12.5885 31.9561 11.6868 30.8215 12.102C28.2327 13.0441 25.6083 13.0441 23.0209 12.102C22.2526 11.8208 21.3893 12.1371 20.9999 12.9431C20.6184 12.1536 19.7656 11.8156 18.9818 12.0991C16.3801 13.0441 13.7543 13.0441 11.1812 12.1034C10.0549 11.6894 8.97949 12.5752 8.97949 13.7145ZM26.04 17.4548L26.5651 17.1516L26.1138 16.8911C26.073 16.8674 26.0431 16.8286 26.0309 16.783C26.0187 16.7375 26.0251 16.6889 26.0486 16.648C26.0722 16.6072 26.1111 16.5774 26.1567 16.5651C26.2023 16.5529 26.2508 16.5593 26.2917 16.5829L26.7431 16.8435V16.2371C26.7431 16.1899 26.7619 16.1447 26.7952 16.1113C26.8286 16.0779 26.8739 16.0592 26.921 16.0592C26.9682 16.0592 27.0135 16.0779 27.0468 16.1113C27.0802 16.1447 27.0989 16.1899 27.0989 16.2371V16.8435L27.5502 16.5829C27.5911 16.5594 27.6396 16.553 27.6852 16.5652C27.7308 16.5774 27.7697 16.6072 27.7933 16.6481C27.8168 16.6889 27.8232 16.7375 27.811 16.7831C27.7988 16.8287 27.769 16.8675 27.7281 16.8911L27.2768 17.1517L27.8019 17.4549C27.8428 17.4785 27.8726 17.5173 27.8848 17.5629C27.897 17.6085 27.8907 17.657 27.8671 17.6979C27.8435 17.7387 27.8046 17.7685 27.7591 17.7807C27.7135 17.793 27.6649 17.7866 27.624 17.7631L27.0989 17.4599V17.981C27.0989 18.0282 27.0802 18.0734 27.0468 18.1068C27.0135 18.1401 26.9682 18.1589 26.921 18.1589C26.8739 18.1589 26.8286 18.1401 26.7952 18.1068C26.7619 18.0734 26.7431 18.0282 26.7431 17.981V17.4598L26.2179 17.7631C26.1771 17.7864 26.1286 17.7926 26.0832 17.7803C26.0378 17.768 25.9991 17.7382 25.9756 17.6975C25.9521 17.6567 25.9456 17.6083 25.9577 17.5629C25.9698 17.5174 25.9993 17.4786 26.04 17.4548ZM14.1979 17.4548L14.7231 17.1516L14.2718 16.8911C14.232 16.8669 14.2032 16.8282 14.1916 16.7831C14.18 16.738 14.1866 16.6902 14.2098 16.6499C14.2331 16.6096 14.2713 16.58 14.3161 16.5675C14.3609 16.5549 14.4089 16.5605 14.4497 16.5829L14.9009 16.8435V16.2371C14.9009 16.1899 14.9197 16.1447 14.9531 16.1113C14.9864 16.0779 15.0317 16.0592 15.0788 16.0592C15.126 16.0592 15.1713 16.0779 15.2046 16.1113C15.238 16.1447 15.2567 16.1899 15.2567 16.2371V16.8435L15.7081 16.5829C15.7489 16.5605 15.7968 16.555 15.8417 16.5675C15.8865 16.58 15.9246 16.6096 15.9479 16.6499C15.9712 16.6902 15.9777 16.7381 15.9661 16.7832C15.9546 16.8282 15.9258 16.867 15.886 16.8911L15.4346 17.1517L15.9598 17.4549C15.9996 17.479 16.0284 17.5178 16.04 17.5628C16.0515 17.6079 16.045 17.6557 16.0217 17.6961C15.9985 17.7364 15.9603 17.766 15.9155 17.7785C15.8707 17.791 15.8227 17.7855 15.7819 17.7631L15.2567 17.4599V17.981C15.2567 18.0282 15.238 18.0734 15.2046 18.1068C15.1713 18.1401 15.126 18.1589 15.0788 18.1589C15.0317 18.1589 14.9864 18.1401 14.9531 18.1068C14.9197 18.0734 14.9009 18.0282 14.9009 17.981V17.4599L14.3758 17.7631C14.3351 17.7851 14.2873 17.7903 14.2427 17.7777C14.1981 17.7651 14.1602 17.7356 14.1371 17.6954C14.1139 17.6553 14.1073 17.6077 14.1187 17.5628C14.13 17.5178 14.1585 17.4791 14.1979 17.4548Z" fill="#262626"/>
<defs>
<linearGradient id="paint0_linear_683_528" x1="0" y1="0" x2="56.6615" y2="26.056" gradientUnits="userSpaceOnUse">
<stop stop-color="#904A27"/>
<stop offset="0.484375" stop-color="#FBA76B"/>
<stop offset="1" stop-color="#904A27"/>
</linearGradient>
</defs>
</svg>
