<svg width="42" height="42" viewBox="0 0 42 42" fill="none" xmlns="http://www.w3.org/2000/svg">
<rect width="42" height="42" rx="4" fill="url(#paint0_linear_683_535)"/>
<path d="M20.0561 11.1214C20.251 11.1214 20.409 11.2794 20.409 11.473V11.6737C20.7415 11.6574 21.1661 11.6599 21.5903 11.6894V11.4816C21.5903 11.2823 21.7525 11.1215 21.9503 11.1215C22.3446 11.1215 22.6872 10.827 22.7245 10.4426C22.7656 10.0053 22.4229 9.61719 21.9759 9.61719H20.0233C19.6256 9.61719 19.2919 9.92995 19.2733 10.333C19.2516 10.7713 19.6254 11.1214 20.0561 11.1214ZM31.6994 26.8608C31.567 26.3797 31.1286 26.0424 30.6348 26.0424H22.3887V25.1515H31.2425C31.7179 25.1515 32.1036 24.7658 32.1036 24.2905C32.1036 23.8152 31.7179 23.428 31.2425 23.428H10.7568C10.2814 23.428 9.89573 23.8152 9.89573 24.2905C9.89573 24.7658 10.2814 25.1515 10.7568 25.1515H19.6106V26.0424H11.3645C10.8707 26.0424 10.4323 26.3797 10.3 26.8608C10.1349 27.4571 9.74775 27.9481 9.24112 28.2555H32.7583C32.2515 27.9481 31.8645 27.4571 31.6994 26.8608ZM29.7406 32.0266H29.2367C29.1896 32.0266 29.1443 32.0454 29.1109 32.0788C29.0776 32.1121 29.0588 32.1574 29.0588 32.2045C29.0588 32.2517 29.0776 32.297 29.1109 32.3303C29.1443 32.3637 29.1896 32.3824 29.2367 32.3824H29.7406C29.7878 32.3824 29.833 32.3637 29.8664 32.3303C29.8997 32.297 29.9185 32.2517 29.9185 32.2045C29.9185 32.1574 29.8997 32.1121 29.8664 32.0788C29.833 32.0454 29.7878 32.0266 29.7406 32.0266ZM28.2797 32.0266H25.5302C25.483 32.0266 25.4377 32.0454 25.4044 32.0788C25.371 32.1121 25.3523 32.1574 25.3523 32.2045C25.3523 32.2517 25.371 32.297 25.4044 32.3303C25.4377 32.3637 25.483 32.3824 25.5302 32.3824H28.2797C28.3269 32.3824 28.3721 32.3637 28.4055 32.3303C28.4389 32.297 28.4576 32.2517 28.4576 32.2045C28.4576 32.1574 28.4389 32.1121 28.4055 32.0788C28.3721 32.0454 28.3269 32.0266 28.2797 32.0266ZM34.0875 28.6113H7.91178C7.41795 28.6113 7.0166 29.0141 7.0166 29.508V30.3392C7.0166 30.833 7.41795 31.2358 7.91178 31.2358H34.0875C34.5813 31.2358 34.9826 30.833 34.9826 30.3392V29.508C34.9827 29.0141 34.5813 28.6113 34.0875 28.6113ZM13.4381 14.1034C13.5579 13.993 13.6807 13.8861 13.8065 13.7827C13.8246 13.7679 13.8396 13.7497 13.8506 13.7291C13.8617 13.7085 13.8685 13.686 13.8708 13.6627C13.8731 13.6395 13.8708 13.616 13.8641 13.5937C13.8573 13.5713 13.8462 13.5505 13.8314 13.5324C13.8166 13.5144 13.7984 13.4994 13.7778 13.4884C13.7572 13.4773 13.7347 13.4705 13.7114 13.4681C13.6882 13.4658 13.6647 13.4681 13.6424 13.4749C13.62 13.4816 13.5992 13.4927 13.5811 13.5075C13.4501 13.6152 13.3221 13.7264 13.1974 13.8412C13.1627 13.8732 13.142 13.9176 13.14 13.9647C13.138 14.0119 13.1548 14.0579 13.1867 14.0926C13.2186 14.1274 13.263 14.148 13.3102 14.15C13.3573 14.1521 13.4033 14.1353 13.4381 14.1034ZM14.5438 13.218C15.2758 12.7038 16.0678 12.2808 16.9022 11.9584C16.9458 11.9411 16.9808 11.9072 16.9996 11.8642C17.0184 11.8212 17.0194 11.7726 17.0025 11.7288C16.9855 11.6851 16.952 11.6498 16.9092 11.6306C16.8663 11.6115 16.8177 11.61 16.7738 11.6265C15.9124 11.9594 15.0948 12.3962 14.3391 12.927C14.32 12.9404 14.3037 12.9575 14.2912 12.9772C14.2787 12.9969 14.2702 13.0189 14.2662 13.0419C14.2622 13.0649 14.2627 13.0885 14.2678 13.1113C14.2729 13.1341 14.2825 13.1557 14.2959 13.1748C14.3094 13.1939 14.3264 13.2102 14.3462 13.2227C14.3659 13.2352 14.3879 13.2437 14.4109 13.2478C14.4339 13.2518 14.4575 13.2512 14.4803 13.2461C14.5031 13.241 14.5247 13.2315 14.5438 13.218Z" fill="#262626"/>
<path d="M31.3634 23.0779V22.5357C31.3634 16.7396 26.6456 12.0195 20.8473 12.0195C15.2163 12.0195 10.6357 16.577 10.6357 22.2311V23.0779C10.7281 23.068 31.2901 23.07 31.3634 23.0779Z" fill="#262626"/>
<defs>
<linearGradient id="paint0_linear_683_535" x1="0" y1="0" x2="56.6615" y2="26.056" gradientUnits="userSpaceOnUse">
<stop stop-color="#904A27"/>
<stop offset="0.484375" stop-color="#FBA76B"/>
<stop offset="1" stop-color="#904A27"/>
</linearGradient>
</defs>
</svg>
