<svg width="42" height="42" viewBox="0 0 42 42" fill="none" xmlns="http://www.w3.org/2000/svg">
<rect width="42" height="42" rx="4" fill="url(#paint0_linear_683_559)"/>
<path d="M12.9201 30.7999V32.4324C12.9201 32.4796 12.9388 32.5248 12.9722 32.5582C13.0055 32.5915 13.0508 32.6103 13.098 32.6103H14.1483C14.2251 32.6103 14.292 32.5605 14.3162 32.4879L14.867 30.8355H13.3143C13.1821 30.8358 13.0501 30.8239 12.9201 30.7999ZM27.3415 30.8355L27.8922 32.4879C27.9041 32.5234 27.9269 32.5543 27.9572 32.5763C27.9876 32.5982 28.0241 32.6101 28.0616 32.6102H29.1105C29.1577 32.6102 29.2029 32.5915 29.2363 32.5581C29.2697 32.5248 29.2884 32.4795 29.2884 32.4323V30.8013C29.1587 30.8242 29.0273 30.8356 28.8956 30.8355H27.3415ZM33.8935 27.387L33.5462 27.7344C33.4767 27.8039 33.4767 27.9164 33.5462 27.9859C33.6157 28.0554 33.7282 28.0554 33.7977 27.9859L34.145 27.6386C34.1776 27.6051 34.1957 27.5601 34.1954 27.5133C34.1951 27.4666 34.1764 27.4218 34.1433 27.3888C34.1103 27.3557 34.0655 27.337 34.0188 27.3367C33.972 27.3363 33.927 27.3544 33.8935 27.387ZM32.8872 28.3933L30.9915 30.289C30.922 30.3585 30.922 30.4711 30.9915 30.5406C31.061 30.6101 31.1735 30.6101 31.2431 30.5406L33.1388 28.6449C33.1722 28.6115 33.1909 28.5663 33.1909 28.5191C33.1909 28.4719 33.1722 28.4267 33.1388 28.3933C33.1054 28.3599 33.0602 28.3412 33.013 28.3412C32.9658 28.3412 32.9206 28.3599 32.8872 28.3933ZM33.8797 19.4755H30.4341V22.8755C30.4341 23.6526 29.8022 24.2845 29.0251 24.2845H24.7911C24.014 24.2845 23.3821 23.6526 23.3821 22.8755V19.4755H8.32877V25.5084C8.32877 26.0165 8.53511 26.5146 8.89523 26.8733C9.45884 27.4355 9.94129 27.9151 10.4237 28.3947C10.9048 28.8729 11.3873 29.3525 11.9508 29.9161C12.3109 30.2733 12.8076 30.4797 13.3143 30.4797H28.8956C29.4094 30.4797 29.8947 30.2791 30.2577 29.9148L33.3161 26.8577C33.6805 26.4933 33.8798 26.0095 33.8798 25.4943V19.4755H33.8797ZM23.3821 17.5299C23.3821 17.4673 23.3935 17.4076 23.4134 17.3521H7.90041C7.41369 17.3521 7.0166 17.7491 7.0166 18.2359C7.0166 18.7226 7.41369 19.1197 7.90041 19.1197H23.3821V17.5299ZM34.0989 17.3521H30.4028C30.4235 17.4091 30.434 17.4693 30.4341 17.5299V19.1197H34.0989C34.5856 19.1197 34.9827 18.7226 34.9827 18.2359C34.9827 17.7491 34.5856 17.3521 34.0989 17.3521Z" fill="#262626"/>
<path d="M24.7912 23.9286H29.0253C29.606 23.9286 30.0785 23.4561 30.0785 22.8754V17.5299C30.0785 17.5065 30.074 17.4833 30.065 17.4617C30.0561 17.4401 30.043 17.4205 30.0265 17.404C30.01 17.3874 29.9903 17.3743 29.9687 17.3654C29.9471 17.3565 29.924 17.3519 29.9006 17.352H23.916C23.8688 17.352 23.8235 17.3707 23.7902 17.4041C23.7568 17.4375 23.7381 17.4827 23.7381 17.5299V22.8754C23.7381 23.4561 24.2106 23.9286 24.7912 23.9286ZM8.01272 12.3297C8.05869 12.3403 8.10701 12.3323 8.14704 12.3073C8.18708 12.2824 8.21556 12.2425 8.22622 12.1965C8.26335 12.0363 8.3164 11.8717 8.384 11.7073C8.39288 11.6857 8.39741 11.6625 8.39734 11.6392C8.39727 11.6158 8.3926 11.5927 8.38359 11.5712C8.37458 11.5496 8.36141 11.53 8.34483 11.5136C8.32826 11.4971 8.3086 11.4841 8.28698 11.4752C8.24333 11.4574 8.1944 11.4576 8.1509 11.4758C8.10741 11.494 8.07289 11.5287 8.05489 11.5722C7.98013 11.7543 7.92118 11.9372 7.87961 12.1162C7.87433 12.139 7.87358 12.1625 7.8774 12.1856C7.88123 12.2086 7.88957 12.2307 7.90193 12.2505C7.91429 12.2704 7.93044 12.2876 7.94945 12.3011C7.96846 12.3147 7.98996 12.3244 8.01272 12.3297ZM8.84496 10.9255C9.43296 10.1908 10.3266 9.74545 11.285 9.74545C11.3322 9.74545 11.3774 9.7267 11.4108 9.69334C11.4442 9.65998 11.4629 9.61473 11.4629 9.56755C11.4629 9.52037 11.4442 9.47512 11.4108 9.44175C11.3774 9.40839 11.3322 9.38965 11.285 9.38965C10.234 9.38965 9.23264 9.87183 8.56731 10.7032C8.5527 10.7214 8.54183 10.7424 8.53532 10.7648C8.52881 10.7872 8.52678 10.8107 8.52935 10.8339C8.53192 10.8572 8.53904 10.8796 8.5503 10.9001C8.56156 10.9206 8.57674 10.9386 8.59498 10.9532C8.61321 10.9678 8.63413 10.9787 8.65656 10.9852C8.67899 10.9917 8.70249 10.9937 8.7257 10.9912C8.74892 10.9886 8.7714 10.9815 8.79186 10.9702C8.81232 10.959 8.83036 10.9438 8.84496 10.9255ZM8.9196 12.9613V16.9962H10.4424V12.8973C10.4424 12.3959 10.8803 11.9887 11.4017 12.0576C11.8201 12.1102 12.136 12.4874 12.136 12.9329V13.6231C12.136 13.9049 12.3651 14.134 12.6484 14.134H13.1465C13.4283 14.134 13.6588 13.9049 13.6588 13.6231V12.8972C13.6588 11.5427 12.5245 10.4628 11.1696 10.5304C9.90732 10.5931 8.9196 11.6605 8.9196 12.9613Z" fill="#262626"/>
<defs>
<linearGradient id="paint0_linear_683_559" x1="0" y1="0" x2="56.6615" y2="26.056" gradientUnits="userSpaceOnUse">
<stop stop-color="#904A27"/>
<stop offset="0.484375" stop-color="#FBA76B"/>
<stop offset="1" stop-color="#904A27"/>
</linearGradient>
</defs>
</svg>
