<svg width="28" height="27" viewBox="0 0 28 27" fill="none" xmlns="http://www.w3.org/2000/svg">
<path d="M14.0003 0.166656C6.64033 0.166656 0.666992 6.13999 0.666992 13.5C0.666992 20.86 6.64033 26.8333 14.0003 26.8333C21.3603 26.8333 27.3337 20.86 27.3337 13.5C27.3337 6.13999 21.3603 0.166656 14.0003 0.166656ZM20.187 9.23332C19.987 11.34 19.1203 16.46 18.6803 18.82C18.4937 19.82 18.1203 20.1533 17.7737 20.1933C17.0003 20.26 16.4137 19.6867 15.667 19.1933C14.4937 18.42 13.827 17.94 12.6937 17.1933C11.3737 16.3267 12.227 15.8467 12.987 15.0733C13.187 14.8733 16.6003 11.7667 16.667 11.4867C16.6763 11.4442 16.675 11.4002 16.6634 11.3584C16.6518 11.3166 16.6301 11.2782 16.6003 11.2467C16.5203 11.18 16.4137 11.2067 16.3203 11.22C16.2003 11.2467 14.3337 12.4867 10.6937 14.94C10.1603 15.3 9.68032 15.4867 9.25366 15.4733C8.77366 15.46 7.86699 15.2067 7.18699 14.98C6.34699 14.7133 5.69366 14.5667 5.74699 14.1C5.77366 13.86 6.10699 13.62 6.73366 13.3667C10.627 11.6733 13.2137 10.5533 14.507 10.02C18.2137 8.47332 18.9737 8.20666 19.4803 8.20666C19.587 8.20666 19.8403 8.23332 20.0003 8.36666C20.1337 8.47332 20.1737 8.61999 20.187 8.72666C20.1737 8.80666 20.2003 9.04666 20.187 9.23332Z" fill="#2AABEE"/>
</svg>
