<svg width="28" height="27" viewBox="0 0 28 27" fill="none" xmlns="http://www.w3.org/2000/svg">
<path d="M23.4001 4.04667C22.1777 2.81191 20.7216 1.8329 19.1169 1.16674C17.5122 0.500587 15.7909 0.160622 14.0534 0.166675C6.7734 0.166675 0.840065 6.10001 0.840065 13.38C0.840065 15.7133 1.4534 17.98 2.60007 19.98L0.733398 26.8333L7.7334 24.9933C9.66673 26.0467 11.8401 26.6067 14.0534 26.6067C21.3334 26.6067 27.2667 20.6733 27.2667 13.3933C27.2667 9.86001 25.8934 6.54001 23.4001 4.04667ZM14.0534 24.3667C12.0801 24.3667 10.1467 23.8333 8.4534 22.8333L8.0534 22.5933L3.8934 23.6867L5.00006 19.6333L4.7334 19.22C3.63706 17.4693 3.05492 15.4457 3.0534 13.38C3.0534 7.32667 7.98673 2.39334 14.0401 2.39334C16.9734 2.39334 19.7334 3.54001 21.8001 5.62001C22.8234 6.63863 23.6343 7.85022 24.1859 9.18458C24.7375 10.5189 25.0188 11.9495 25.0134 13.3933C25.0401 19.4467 20.1067 24.3667 14.0534 24.3667ZM20.0801 16.1533C19.7467 15.9933 18.1201 15.1933 17.8267 15.0733C17.5201 14.9667 17.3067 14.9133 17.0801 15.2333C16.8534 15.5667 16.2267 16.3133 16.0401 16.5267C15.8534 16.7533 15.6534 16.78 15.3201 16.6067C14.9867 16.4467 13.9201 16.0867 12.6667 14.9667C11.6801 14.0867 11.0267 13.0067 10.8267 12.6733C10.6401 12.34 10.8001 12.1667 10.9734 11.9933C11.1201 11.8467 11.3067 11.6067 11.4667 11.42C11.6267 11.2333 11.6934 11.0867 11.8001 10.8733C11.9067 10.6467 11.8534 10.46 11.7734 10.3C11.6934 10.14 11.0267 8.51334 10.7601 7.84668C10.4934 7.20668 10.2134 7.28667 10.0134 7.27334H9.3734C9.14673 7.27334 8.80006 7.35334 8.4934 7.68668C8.20006 8.02001 7.34673 8.82001 7.34673 10.4467C7.34673 12.0733 8.5334 13.6467 8.6934 13.86C8.8534 14.0867 11.0267 17.42 14.3334 18.8467C15.1201 19.1933 15.7334 19.3933 16.2134 19.54C17.0001 19.7933 17.7201 19.7533 18.2934 19.6733C18.9334 19.58 20.2534 18.8733 20.5201 18.1C20.8001 17.3267 20.8001 16.6733 20.7067 16.5267C20.6134 16.38 20.4134 16.3133 20.0801 16.1533Z" fill="#5FD669"/>
</svg>
