<svg width="213" height="116" viewBox="0 0 213 116" fill="none" xmlns="http://www.w3.org/2000/svg">
<path d="M68.4463 0L74.493 13.1849L94.3612 25.6436V61.6508L104.455 71.745V20.0498L68.4463 0V23.5505L74.493 13.1849L68.4463 0Z" fill="url(#paint0_linear_475_245)"/>
<path d="M90.3617 51.012V28.6447L74.3574 18.0099L90.3617 51.012Z" fill="#FAA66A"/>
<path d="M145.014 0L138.967 13.1849L119.099 25.6436V61.6508L109.005 71.745V20.0498L145.014 0V23.5505L138.967 13.1849L145.014 0Z" fill="url(#paint1_linear_475_245)"/>
<path d="M123.1 51.012V28.6447L139.104 18.0099L123.1 51.012Z" fill="#FAA66A"/>
<path d="M131.538 1.90958L106.53 15.8249L81.5254 1.90958H131.538Z" fill="#FAA66A"/>
<path d="M0 78.2058H12.7912V82.2594H8.58051V100.971H4.14745V82.2594H0V78.2058Z" fill="url(#paint2_linear_475_245)"/>
<path d="M15.0391 78.2058H19.4721V93.7511L28.9074 78.2058H33.8464V100.971H29.4134V85.6785L19.9781 100.971H15.0391V78.2058Z" fill="url(#paint3_linear_475_245)"/>
<path d="M35.7109 78.2058H48.5021V82.2594H44.2915V100.971H39.8584V82.2594H35.7109V78.2058Z" fill="url(#paint4_linear_475_245)"/>
<path d="M66.6739 100.971L64.3951 95.2403H55.8779L53.6297 100.971H48.9131L58.4749 78.2058H61.8308L71.3926 100.971H66.6739ZM60.1518 84.1893L57.4283 91.2173H62.8733L60.1518 84.1893Z" fill="url(#paint5_linear_475_245)"/>
<path d="M77.6909 78.2058V87.1351H85.8593V78.2058H90.2924V100.971H85.8593V91.1867H77.6909V100.971H73.2578V78.2058H77.6909Z" fill="url(#paint6_linear_475_245)"/>
<path d="M93.835 78.2058H100.769C104.917 78.2058 108.305 81.4352 108.305 85.4235C108.305 89.4139 104.949 92.6739 100.802 92.6739H98.2374V100.969H93.837V78.2058H93.835ZM98.2374 88.6224H100.233C102.165 88.6224 103.748 87.1984 103.748 85.4235C103.748 83.6507 102.197 82.2573 100.233 82.2573H98.2374V88.6224Z" fill="#FAA66A"/>
<path d="M123.754 78.2058V82.2594H115.712V87.1678H123.754V91.2214H115.712V96.9213H123.754V100.975H111.279V78.2058H123.754Z" fill="#FAA66A"/>
<path d="M137.366 100.971L131.319 84.4443V100.971H126.886V78.2058H133.377L139.204 95.6504L145.03 78.2058H151.585V100.971H147.152V84.4117L141.105 100.971H137.366Z" fill="#FAA66A"/>
<path d="M178.524 89.7301C178.524 96.1889 173.11 101.444 166.431 101.444C159.749 101.444 154.335 96.1889 154.335 89.7301C154.335 83.1121 159.749 77.761 166.431 77.761C173.11 77.7631 178.524 83.1142 178.524 89.7301ZM158.895 89.7301C158.895 93.9408 162.25 97.3926 166.431 97.3926C170.611 97.3926 173.967 93.9408 173.967 89.7301C173.967 85.3297 170.611 81.8147 166.431 81.8147C162.25 81.8147 158.895 85.3297 158.895 89.7301Z" fill="#FAA66A"/>
<path d="M185.71 78.2058V87.1351H193.879V78.2058H198.312V100.971H193.879V91.1867H185.71V100.971H181.277V78.2058H185.71Z" fill="#FAA66A"/>
<path d="M200.209 78.2058H213V82.2594H208.789V100.971H204.356V82.2594H200.209V78.2058Z" fill="#FAA66A"/>
<path d="M2.96289 108.824H5.05738C6.31165 108.824 7.33348 109.799 7.33348 111.005C7.33348 112.211 6.31892 113.197 5.06707 113.197H4.29223V115.703H2.96289V108.824ZM4.29223 111.971H4.89515C5.4787 111.971 5.95571 111.54 5.95571 111.005C5.95571 110.47 5.48597 110.049 4.89515 110.049H4.29223V111.971Z" fill="#FAA66A"/>
<path d="M12.9581 108.824V110.049H10.5295V111.531H12.9581V112.756H10.5295V114.477H12.9581V115.703H9.19043V108.826H12.9581V108.824Z" fill="#FAA66A"/>
<path d="M18.0275 115.703L16.1994 110.71V115.703H14.8604V108.826H16.8217L18.582 114.097L20.3423 108.826H22.323V115.703H20.984V110.7L19.1559 115.703H18.0275Z" fill="#FAA66A"/>
<path d="M31.419 112.305C31.419 114.257 29.7822 115.845 27.7652 115.845C25.7458 115.845 24.1113 114.257 24.1113 112.305C24.1113 110.305 25.7482 108.69 27.7652 108.69C29.7822 108.69 31.419 110.308 31.419 112.305ZM25.4891 112.305C25.4891 113.577 26.5036 114.62 27.7652 114.62C29.0267 114.62 30.0413 113.577 30.0413 112.305C30.0413 110.976 29.0267 109.913 27.7652 109.913C26.5012 109.915 25.4891 110.976 25.4891 112.305Z" fill="#FAA66A"/>
<path d="M34.5441 108.824V111.521H37.0115V108.824H38.3505V115.7H37.0115V112.744H34.5441V115.7H33.2051V108.824H34.5441Z" fill="#FAA66A"/>
<path d="M39.8828 108.824H43.7473V110.049H42.4761V115.703H41.1371V110.049H39.8828V108.824Z" fill="#FAA66A"/>
<path d="M46.7316 108.824V111.521H49.199V108.824H50.538V115.7H49.199V112.744H46.7316V115.7H45.3926V108.824H46.7316Z" fill="#FAA66A"/>
<path d="M59.5772 112.305C59.5772 114.257 57.9404 115.845 55.9234 115.845C53.904 115.845 52.2695 114.257 52.2695 112.305C52.2695 110.305 53.9064 108.69 55.9234 108.69C57.9404 108.69 59.5772 110.308 59.5772 112.305ZM53.6473 112.305C53.6473 113.577 54.6618 114.62 55.9234 114.62C57.1849 114.62 58.1995 113.577 58.1995 112.305C58.1995 110.976 57.1849 109.913 55.9234 109.913C54.6594 109.915 53.6473 110.976 53.6473 112.305Z" fill="#FAA66A"/>
<path d="M61.0605 112.133H63.6635V113.223H61.0605V112.133Z" fill="#FAA66A"/>
<path d="M70.6144 113.635H72.1447C71.7815 114.879 70.2996 115.845 68.8541 115.845C66.8443 115.845 65.2002 114.257 65.2002 112.305C65.2002 110.305 66.8443 108.69 68.8541 108.69C70.3844 108.69 71.8566 109.666 72.1544 110.862H70.6144C70.3553 110.24 69.5248 109.915 68.8541 109.915C67.5925 109.915 66.5683 110.986 66.578 112.308C66.578 113.579 67.6119 114.623 68.8541 114.623C69.5441 114.62 70.319 114.276 70.6144 113.635Z" fill="#FAA66A"/>
<path d="M73.2344 108.824H77.0989V110.049H75.8277V115.703H74.4886V110.049H73.2344V108.824Z" fill="#FAA66A"/>
<path d="M78.7451 108.824H80.8396C82.0939 108.824 83.1157 109.799 83.1157 111.005C83.1157 112.211 82.1011 113.197 80.8493 113.197H80.0745V115.703H78.7451V108.824ZM80.0745 111.971H80.6774C81.2609 111.971 81.7379 111.54 81.7379 111.005C81.7379 110.47 81.2682 110.049 80.6774 110.049H80.0745V111.971Z" fill="#FAA66A"/>
<path d="M91.9913 112.305C91.9913 114.257 90.3545 115.845 88.3374 115.845C86.318 115.845 84.6836 114.257 84.6836 112.305C84.6836 110.305 86.3204 108.69 88.3374 108.69C90.3545 108.69 91.9913 110.308 91.9913 112.305ZM86.0614 112.305C86.0614 113.577 87.0759 114.62 88.3374 114.62C89.599 114.62 90.6135 113.577 90.6135 112.305C90.6135 110.976 89.599 109.913 88.3374 109.913C87.0735 109.915 86.0614 110.976 86.0614 112.305Z" fill="#FAA66A"/>
<path d="M93.7695 108.824H95.1086V113.521L97.9585 108.824H99.4501V115.7H98.1111V111.08L95.2611 115.7H93.7695V108.824Z" fill="#FAA66A"/>
<path d="M100.972 108.824H104.836V110.049H103.565V115.703H102.226V110.049H100.972V108.824Z" fill="#FAA66A"/>
<path d="M110.242 108.824V110.049H107.813V111.531H110.242V112.756H107.813V114.477H110.242V115.703H106.472V108.826H110.242V108.824Z" fill="#FAA66A"/>
<path d="M115.608 108.824L118.373 115.7H116.957L114.976 110.698L112.996 115.7H111.579L114.344 108.824H115.608Z" fill="#FAA66A"/>
<path d="M121.231 108.824V111.301H121.928C123.219 111.301 124.262 112.305 124.262 113.538C124.262 114.734 123.219 115.7 121.928 115.7H119.892V108.824H121.231ZM121.231 114.477H121.853C122.427 114.477 122.887 114.046 122.887 113.521C122.887 112.976 122.398 112.526 121.853 112.526H121.231V114.477Z" fill="#FAA66A"/>
<path d="M127.351 108.823V111.521H129.818V108.823H131.157V115.7H129.818V112.744H127.351V115.7H126.012V108.823H127.351Z" fill="#FAA66A"/>
<path d="M137.988 115.702L137.3 113.971H134.726L134.048 115.702H132.622L135.511 108.826H136.525L139.414 115.702H137.988ZM136.017 110.632L135.194 112.756H136.838L136.017 110.632Z" fill="#FAA66A"/>
<path d="M144.129 115.703V113.148L142.321 115.703H140.657L142.619 113.148C141.28 112.908 140.657 112.029 140.657 111.015C140.657 109.799 141.737 108.823 143.069 108.823H145.471V115.7H144.129V115.703ZM144.129 110.049H143.212C142.551 110.049 142.035 110.518 142.035 111.102C142.035 111.666 142.541 112.117 143.212 112.117H144.129V110.049Z" fill="#FAA66A"/>
<path d="M152.929 108.823V111.654L155.052 108.823H156.612L154.009 112.162L156.602 115.703H154.965L152.929 112.746V115.703H151.59V108.826H152.929V108.823Z" fill="#FAA66A"/>
<path d="M164.74 112.305C164.74 114.257 163.103 115.845 161.086 115.845C159.067 115.845 157.433 114.257 157.433 112.305C157.433 110.305 159.067 108.69 161.086 108.69C163.106 108.69 164.74 110.308 164.74 112.305ZM158.81 112.305C158.81 113.577 159.825 114.62 161.086 114.62C162.348 114.62 163.363 113.577 163.363 112.305C163.363 110.976 162.348 109.913 161.086 109.913C159.825 109.913 158.81 110.976 158.81 112.305Z" fill="#FAA66A"/>
<path d="M169.694 115.702L167.865 110.709V115.702H166.526V108.826H168.488L170.248 114.097L172.008 108.826H173.989V115.702H172.65V110.7L170.822 115.702H169.694Z" fill="#FAA66A"/>
<path d="M177.413 115.702H176.074V108.826H181.22V115.702H179.881V110.048H177.413V115.702Z" fill="#FAA66A"/>
<path d="M187.972 115.702L187.285 113.971H184.711L184.033 115.702H182.606L185.495 108.826H186.51L189.398 115.702H187.972ZM186.001 110.632L185.178 112.756H186.822L186.001 110.632Z" fill="#FAA66A"/>
<path d="M192.258 108.823V111.521H194.725V108.823H196.064V115.7H194.725V112.744H192.258V115.7H190.919V108.823H192.258Z" fill="#FAA66A"/>
<path d="M198.081 108.823H199.42V113.521L202.27 108.823H203.762V115.7H202.423V111.08L199.573 115.7H198.081V108.823Z" fill="#FAA66A"/>
<path d="M208.976 115.703V113.148L207.167 115.703H205.506L207.467 113.148C206.128 112.908 205.506 112.029 205.506 111.015C205.506 109.799 206.586 108.823 207.918 108.823H210.32V115.7H208.976V115.703ZM208.976 110.049H208.058C207.397 110.049 206.881 110.518 206.881 111.102C206.881 111.666 207.387 112.117 208.058 112.117H208.976V110.049Z" fill="#FAA66A"/>
<defs>
<linearGradient id="paint0_linear_475_245" x1="68.4464" y1="35.8726" x2="104.455" y2="35.8726" gradientUnits="userSpaceOnUse">
<stop stop-color="#FBA76B"/>
<stop offset="1" stop-color="#904A27"/>
</linearGradient>
<linearGradient id="paint1_linear_475_245" x1="127.009" y1="69.2897" x2="127.009" y2="4.60551" gradientUnits="userSpaceOnUse">
<stop stop-color="#FBA76B"/>
<stop offset="1" stop-color="#A65A37"/>
</linearGradient>
<linearGradient id="paint2_linear_475_245" x1="6.39552" y1="74.4726" x2="6.39552" y2="109.519" gradientUnits="userSpaceOnUse">
<stop stop-color="#FBA76B"/>
<stop offset="1" stop-color="#904A27"/>
</linearGradient>
<linearGradient id="paint3_linear_475_245" x1="24.4429" y1="74.4726" x2="24.4429" y2="109.519" gradientUnits="userSpaceOnUse">
<stop stop-color="#FBA76B"/>
<stop offset="1" stop-color="#904A27"/>
</linearGradient>
<linearGradient id="paint4_linear_475_245" x1="42.1059" y1="74.4726" x2="42.1059" y2="109.519" gradientUnits="userSpaceOnUse">
<stop stop-color="#FBA76B"/>
<stop offset="1" stop-color="#904A27"/>
</linearGradient>
<linearGradient id="paint5_linear_475_245" x1="60.1525" y1="74.4726" x2="60.1525" y2="109.519" gradientUnits="userSpaceOnUse">
<stop stop-color="#FBA76B"/>
<stop offset="1" stop-color="#904A27"/>
</linearGradient>
<linearGradient id="paint6_linear_475_245" x1="81.7758" y1="74.4726" x2="81.7758" y2="109.519" gradientUnits="userSpaceOnUse">
<stop stop-color="#FBA76B"/>
<stop offset="1" stop-color="#904A27"/>
</linearGradient>
</defs>
</svg>
